<svg width="20" height="21" viewBox="0 0 20 21" fill="none" xmlns="http://www.w3.org/2000/svg">
<path d="M1.66602 6.33366L5.34102 2.65866C5.49606 2.50269 5.68045 2.37894 5.88354 2.29456C6.08664 2.21017 6.30442 2.16682 6.52435 2.16699H13.4743C13.6943 2.16682 13.9121 2.21017 14.1152 2.29456C14.3183 2.37894 14.5026 2.50269 14.6577 2.65866L18.3327 6.33366M1.66602 6.33366H18.3327M1.66602 6.33366V8.83366C1.66602 9.27569 1.84161 9.69961 2.15417 10.0122C2.46673 10.3247 2.89065 10.5003 3.33268 10.5003M18.3327 6.33366V8.83366C18.3327 9.27569 18.1571 9.69961 17.8445 10.0122C17.532 10.3247 17.108 10.5003 16.666 10.5003M3.33268 10.5003V17.167C3.33268 17.609 3.50828 18.0329 3.82084 18.3455C4.1334 18.6581 4.55732 18.8337 4.99935 18.8337H14.9993C15.4414 18.8337 15.8653 18.6581 16.1779 18.3455C16.4904 18.0329 16.666 17.609 16.666 17.167V10.5003M3.33268 10.5003C3.81957 10.4735 4.28457 10.2893 4.65768 9.97533C4.75712 9.90347 4.87667 9.86479 4.99935 9.86479C5.12203 9.86479 5.24158 9.90347 5.34102 9.97533C5.71412 10.2893 6.17913 10.4735 6.66602 10.5003C7.1529 10.4735 7.61791 10.2893 7.99102 9.97533C8.09045 9.90347 8.21 9.86479 8.33268 9.86479C8.45536 9.86479 8.57492 9.90347 8.67435 9.97533C9.04746 10.2893 9.51246 10.4735 9.99935 10.5003C10.4862 10.4735 10.9512 10.2893 11.3243 9.97533C11.4238 9.90347 11.5433 9.86479 11.666 9.86479C11.7887 9.86479 11.9082 9.90347 12.0077 9.97533C12.3808 10.2893 12.8458 10.4735 13.3327 10.5003C13.8196 10.4735 14.2846 10.2893 14.6577 9.97533C14.7571 9.90347 14.8767 9.86479 14.9993 9.86479C15.122 9.86479 15.2416 9.90347 15.341 9.97533C15.7141 10.2893 16.1791 10.4735 16.666 10.5003M12.4993 18.8337V15.5003C12.4993 15.0583 12.3238 14.6344 12.0112 14.3218C11.6986 14.0093 11.2747 13.8337 10.8327 13.8337H9.16602C8.72399 13.8337 8.30007 14.0093 7.9875 14.3218C7.67494 14.6344 7.49935 15.0583 7.49935 15.5003V18.8337" stroke="#A0AEC0" stroke-linecap="round" stroke-linejoin="round"/>
</svg>
