<svg width="34" height="34" viewBox="0 0 34 34" fill="none" xmlns="http://www.w3.org/2000/svg">
<circle cx="17" cy="17" r="17" fill="#E7F2FF"/>
<path d="M21.9154 10.5771H12.8487C11.5643 10.5771 10.582 11.5594 10.582 12.8438V21.9105C10.582 23.1949 11.5643 24.1771 12.8487 24.1771H21.9154C23.1998 24.1771 24.182 23.1949 24.182 21.9105V12.8438C24.182 11.5594 23.1998 10.5771 21.9154 10.5771ZM17.382 15.1105C18.6665 15.1105 19.6487 16.0927 19.6487 17.3771C19.6487 18.6616 18.6665 19.6438 17.382 19.6438C16.0976 19.6438 15.1154 18.6616 15.1154 17.3771C15.1154 16.0927 16.0976 15.1105 17.382 15.1105ZM20.2531 13.5994C20.2531 13.0705 20.7065 12.6927 21.1598 12.6927C21.6131 12.6927 22.0665 13.146 22.0665 13.5994C22.0665 14.0527 21.6887 14.506 21.1598 14.506C20.6309 14.506 20.2531 14.1283 20.2531 13.5994ZM21.9154 22.666H12.8487C12.3954 22.666 12.0931 22.3638 12.0931 21.9105V17.3771H13.6043C13.6043 19.4927 15.2665 21.1549 17.382 21.1549C19.4976 21.1549 21.1598 19.4927 21.1598 17.3771H22.6709V21.9105C22.6709 22.3638 22.3687 22.666 21.9154 22.666Z" fill="#0E2D52"/>
</svg>
