<svg width="34" height="34" viewBox="0 0 34 34" fill="none" xmlns="http://www.w3.org/2000/svg">
<circle cx="17" cy="17" r="17" fill="white"/>
<path d="M14.3555 21.1571H12.0889V13.6016H14.3555V21.1571ZM22.6666 21.1571H20.4V17.1209C20.4 16.0692 20.0252 15.5456 19.2825 15.5456C18.6939 15.5456 18.3207 15.8388 18.1333 16.4258V21.1571H15.8666C15.8666 21.1571 15.8969 14.3571 15.8666 13.6016H17.6558L17.7941 15.1127H17.8409C18.3056 14.3571 19.0483 13.8449 20.0668 13.8449C20.8412 13.8449 21.4676 14.0602 21.9458 14.6012C22.4271 15.1429 22.6666 15.8697 22.6666 16.8905V21.1571Z" fill="#0E2D52"/>
<path d="M13.26 12.8448C13.9068 12.8448 14.4311 12.3374 14.4311 11.7115C14.4311 11.0855 13.9068 10.5781 13.26 10.5781C12.6132 10.5781 12.0889 11.0855 12.0889 11.7115C12.0889 12.3374 12.6132 12.8448 13.26 12.8448Z" fill="#0E2D52"/>
</svg>
