<svg width="34" height="34" viewBox="0 0 34 34" fill="none" xmlns="http://www.w3.org/2000/svg">
<path d="M34 17C34 26.3888 26.3888 34 17 34C7.61116 34 0 26.3888 0 17C0 7.61116 7.61116 0 17 0C26.3888 0 34 7.61116 34 17Z" fill="#E7F2FF"/>
<path d="M13.7857 23.0015H11V13.7158H13.7857V23.0015ZM24 23.0015H21.2143V18.0411C21.2143 16.7485 20.7537 16.105 19.8409 16.105C19.1176 16.105 18.6589 16.4653 18.4286 17.1868V23.0015H15.6429C15.6429 23.0015 15.68 14.6444 15.6429 13.7158H17.8417L18.0116 15.573H18.0692C18.6403 14.6444 19.5531 14.0148 20.8048 14.0148C21.7566 14.0148 22.5264 14.2795 23.1141 14.9443C23.7056 15.6101 24 16.5034 24 17.7579V23.0015Z" fill="#0E2D52"/>
<path d="M12.4393 12.7857C13.2342 12.7857 13.8786 12.1621 13.8786 11.3929C13.8786 10.6236 13.2342 10 12.4393 10C11.6444 10 11 10.6236 11 11.3929C11 12.1621 11.6444 12.7857 12.4393 12.7857Z" fill="#0E2D52"/>
</svg>
