<svg width="132" height="22" viewBox="0 0 132 22" fill="none" xmlns="http://www.w3.org/2000/svg">
<rect x="6.50606" y="0.591997" width="10.411" height="18.2193" rx="1.30138" stroke="#0E2D52" stroke-width="0.867587"/>
<path d="M9.54199 1.02637H13.8799C13.8799 1.50552 13.4915 1.89395 13.0123 1.89395H10.4096C9.93042 1.89395 9.54199 1.50552 9.54199 1.02637Z" fill="#0E2D52"/>
<rect x="7.80762" y="2.76074" width="7.80828" height="3.47035" rx="0.433793" fill="#063676"/>
<rect x="7.80762" y="8.83496" width="3.47035" height="3.47035" rx="0.433793" fill="#67A2F1"/>
<rect x="7.80762" y="13.1719" width="7.80828" height="3.47035" rx="0.433793" fill="#67A2F1"/>
<path d="M7.80762 17.9445C7.80762 17.705 8.00183 17.5107 8.24141 17.5107H15.1821C15.4217 17.5107 15.6159 17.705 15.6159 17.9445V18.3783H7.80762V17.9445Z" fill="#67A2F1"/>
<rect x="12.1455" y="8.83496" width="3.47035" height="3.47035" rx="0.433793" fill="#063676"/>
<rect x="7.80762" y="7.09961" width="7.80828" height="0.867587" rx="0.433793" fill="#66A1F1"/>
<rect x="7.80762" y="7.09961" width="7.80828" height="0.867587" rx="0.433793" fill="#66A1F1"/>
<rect x="7.80762" y="7.09961" width="7.80828" height="0.867587" rx="0.433793" fill="#66A1F1"/>
<rect x="12.1455" y="7.09961" width="3.47035" height="0.867587" rx="0.433793" fill="#66A1F1"/>
<rect x="12.1455" y="7.09961" width="3.47035" height="0.867587" rx="0.433793" fill="#66A1F1"/>
<rect x="12.1455" y="7.09961" width="3.47035" height="0.867587" rx="0.433793" fill="#063676"/>
<path d="M7.89604 19.5878C8.51612 19.5878 9.01783 20.0951 9.01783 20.7152C9.01783 21.3353 8.51612 21.8426 7.89604 21.8426C7.27595 21.8426 6.76861 21.3353 6.76861 20.7152C6.76861 20.0951 7.27595 19.5878 7.89604 19.5878ZM11.2783 11.1321C11.2783 11.4421 11.0246 11.6958 10.7146 11.6958H10.1509L8.12152 15.9744L8.88254 17.3498C9.29405 18.1052 8.75288 19.0241 7.89604 19.0241H1.69518C1.38514 19.0241 1.13147 18.7704 1.13147 18.4604C1.13147 18.1503 1.38514 17.8966 1.69518 17.8966H7.89604L7.27595 16.7692H3.07628C2.65349 16.7692 2.28144 16.5381 2.08978 16.1886L0.0716848 12.5301C-0.136889 12.158 0.133693 11.6958 0.562116 11.6958H8.90508L9.28277 10.8897C9.37297 10.6924 9.5759 10.5684 9.79012 10.5684H10.7146C11.0246 10.5684 11.2783 10.822 11.2783 11.1321ZM2.25889 19.5878C2.87898 19.5878 3.38069 20.0951 3.38069 20.7152C3.38069 21.3353 2.87898 21.8426 2.25889 21.8426C1.63881 21.8426 1.13147 21.3353 1.13147 20.7152C1.13147 20.0951 1.63881 19.5878 2.25889 19.5878Z" fill="#063676"/>
<path d="M23.597 14.5806H24.2815C25.0667 14.5806 25.6291 14.4798 25.9687 14.2781C26.3083 14.0765 26.4781 13.7529 26.4781 13.3072C26.4781 12.8615 26.3083 12.5378 25.9687 12.3362C25.6291 12.1346 25.0667 12.0338 24.2815 12.0338H23.597V14.5806ZM23.597 9.70986H24.1701C25.1463 9.70986 25.6345 9.32254 25.6345 8.5479C25.6345 7.77325 25.1463 7.38593 24.1701 7.38593H23.597V9.70986ZM20.4772 4.99833H25.1251C26.2287 4.99833 27.067 5.26362 27.64 5.7942C28.2131 6.32477 28.4996 7.08881 28.4996 8.08629C28.4996 8.69115 28.3882 9.1952 28.1653 9.59844C27.9531 9.99107 27.6241 10.3253 27.1784 10.6012C27.6241 10.6861 28.0008 10.8188 28.3086 10.9992C28.6269 11.1689 28.8816 11.3812 29.0726 11.6359C29.2742 11.8905 29.4175 12.177 29.5024 12.4954C29.5873 12.8137 29.6297 13.1533 29.6297 13.5141C29.6297 14.0765 29.5289 14.5753 29.3273 15.0103C29.1363 15.4454 28.8604 15.8115 28.4996 16.1086C28.1494 16.4058 27.7196 16.6286 27.2103 16.7772C26.7009 16.9257 26.1279 17 25.4912 17H20.4772V4.99833ZM33.9297 8.83441V17H31.0486V8.83441H33.9297ZM30.8576 5.69869C30.8576 5.47585 30.9001 5.26893 30.9849 5.07792C31.0698 4.8763 31.1866 4.70121 31.3351 4.55264C31.4837 4.40408 31.6535 4.28736 31.8445 4.20246C32.0461 4.11757 32.2583 4.07512 32.4812 4.07512C32.704 4.07512 32.9109 4.11757 33.102 4.20246C33.3036 4.28736 33.4787 4.40408 33.6272 4.55264C33.7758 4.70121 33.8925 4.8763 33.9774 5.07792C34.0623 5.26893 34.1047 5.47585 34.1047 5.69869C34.1047 5.92154 34.0623 6.13377 33.9774 6.33539C33.8925 6.52639 33.7758 6.69618 33.6272 6.84474C33.4787 6.9933 33.3036 7.11003 33.102 7.19492C32.9109 7.27981 32.704 7.32226 32.4812 7.32226C32.2583 7.32226 32.0461 7.27981 31.8445 7.19492C31.6535 7.11003 31.4837 6.9933 31.3351 6.84474C31.1866 6.69618 31.0698 6.52639 30.9849 6.33539C30.9001 6.13377 30.8576 5.92154 30.8576 5.69869ZM39.9217 14.5965H43.3598V17H35.0828L38.9348 11.2379H35.6081V8.83441H43.7418L39.9217 14.5965ZM53.8275 9.0095C53.1059 8.12874 52.2145 7.68836 51.1534 7.68836C50.6865 7.68836 50.2514 7.77325 49.8482 7.94304C49.4555 8.11282 49.116 8.34628 48.8295 8.6434C48.5429 8.92991 48.3148 9.27479 48.145 9.67803C47.9858 10.0813 47.9062 10.5163 47.9062 10.9832C47.9062 11.4608 47.9858 11.9011 48.145 12.3044C48.3148 12.7076 48.5429 13.0578 48.8295 13.3549C49.1266 13.6521 49.4715 13.8855 49.8641 14.0553C50.2567 14.2251 50.6812 14.31 51.1375 14.31C52.135 14.31 53.0316 13.8855 53.8275 13.0366V16.7294L53.5091 16.8408C53.0316 17.0106 52.5859 17.1326 52.1721 17.2069C51.7582 17.2918 51.3497 17.3343 50.9465 17.3343C50.1188 17.3343 49.3229 17.1804 48.5589 16.8727C47.8054 16.5543 47.1369 16.1139 46.5533 15.5515C45.9803 14.9785 45.5186 14.3047 45.1685 13.53C44.8183 12.7448 44.6432 11.8905 44.6432 10.9673C44.6432 10.0441 44.813 9.20051 45.1525 8.43647C45.5027 7.66183 45.9643 6.99861 46.5374 6.44681C47.121 5.88439 47.7948 5.44932 48.5589 5.14159C49.3229 4.82324 50.1241 4.66407 50.9624 4.66407C51.4399 4.66407 51.9068 4.71712 52.3631 4.82324C52.83 4.91874 53.3181 5.07261 53.8275 5.28484V9.0095ZM58.0735 12.8774C58.0735 13.1533 58.1212 13.408 58.2167 13.6414C58.3228 13.8643 58.4555 14.0606 58.6147 14.2304C58.7844 14.4002 58.9808 14.5328 59.2036 14.6283C59.4371 14.7238 59.6811 14.7716 59.9358 14.7716C60.1905 14.7716 60.4292 14.7238 60.6521 14.6283C60.8855 14.5328 61.0818 14.4002 61.241 14.2304C61.4108 14.0606 61.5435 13.8643 61.639 13.6414C61.7451 13.408 61.7981 13.1586 61.7981 12.8933C61.7981 12.6387 61.7451 12.3999 61.639 12.177C61.5435 11.9436 61.4108 11.742 61.241 11.5722C61.0818 11.4024 60.8855 11.2698 60.6521 11.1743C60.4292 11.0788 60.1905 11.031 59.9358 11.031C59.6811 11.031 59.4371 11.0788 59.2036 11.1743C58.9808 11.2698 58.7844 11.4024 58.6147 11.5722C58.4555 11.742 58.3228 11.9383 58.2167 12.1611C58.1212 12.384 58.0735 12.6227 58.0735 12.8774ZM55.0333 12.8456C55.0333 12.2407 55.1553 11.6783 55.3994 11.1583C55.6434 10.6278 55.983 10.1715 56.4181 9.78945C56.8531 9.39682 57.3678 9.08908 57.9621 8.86624C58.5669 8.6434 59.2248 8.53198 59.9358 8.53198C60.6362 8.53198 61.2835 8.6434 61.8777 8.86624C62.4826 9.07847 63.0025 9.3809 63.4376 9.77353C63.8833 10.1555 64.2282 10.6171 64.4722 11.1583C64.7163 11.6889 64.8383 12.2779 64.8383 12.9252C64.8383 13.5725 64.711 14.1667 64.4563 14.7079C64.2123 15.2385 63.8727 15.7001 63.4376 16.0927C63.0025 16.4747 62.4773 16.7719 61.8618 16.9841C61.2569 17.1963 60.599 17.3024 59.888 17.3024C59.1877 17.3024 58.5404 17.1963 57.9461 16.9841C57.3519 16.7719 56.8372 16.4694 56.4022 16.0768C55.9777 15.6842 55.6434 15.2173 55.3994 14.6761C55.1553 14.1243 55.0333 13.5141 55.0333 12.8456ZM66.3179 8.83441H69.199V9.86903C69.5916 9.39151 69.9895 9.07317 70.3928 8.91399C70.796 8.74421 71.2682 8.65932 71.8094 8.65932C72.3824 8.65932 72.8706 8.75482 73.2738 8.94583C73.6877 9.12623 74.0378 9.38621 74.3244 9.72578C74.5578 10.0017 74.717 10.3094 74.8019 10.649C74.8868 10.9886 74.9292 11.3759 74.9292 11.8109V17H72.0482V12.8774C72.0482 12.4742 72.0163 12.1505 71.9527 11.9065C71.8996 11.6518 71.7988 11.4502 71.6502 11.3016C71.5229 11.1743 71.3796 11.0841 71.2205 11.031C71.0613 10.9779 70.8915 10.9514 70.7111 10.9514C70.223 10.9514 69.8463 11.1 69.581 11.3971C69.3263 11.6836 69.199 12.0975 69.199 12.6387V17H66.3179V8.83441ZM76.7091 8.83441H79.5902V9.86903C79.9828 9.39151 80.3807 9.07317 80.784 8.91399C81.1872 8.74421 81.6594 8.65932 82.2006 8.65932C82.7736 8.65932 83.2618 8.75482 83.665 8.94583C84.0788 9.12623 84.429 9.38621 84.7155 9.72578C84.949 10.0017 85.1082 10.3094 85.1931 10.649C85.278 10.9886 85.3204 11.3759 85.3204 11.8109V17H82.4394V12.8774C82.4394 12.4742 82.4075 12.1505 82.3439 11.9065C82.2908 11.6518 82.19 11.4502 82.0414 11.3016C81.9141 11.1743 81.7708 11.0841 81.6117 11.031C81.4525 10.9779 81.2827 10.9514 81.1023 10.9514C80.6142 10.9514 80.2375 11.1 79.9722 11.3971C79.7175 11.6836 79.5902 12.0975 79.5902 12.6387V17H76.7091V8.83441ZM93.0693 11.7314C92.9738 11.3281 92.7775 11.0045 92.4804 10.7604C92.1832 10.5163 91.8225 10.3943 91.398 10.3943C90.9523 10.3943 90.5862 10.511 90.2997 10.7445C90.0238 10.9779 89.8487 11.3069 89.7744 11.7314H93.0693ZM89.6948 13.4027C89.6948 14.6442 90.2785 15.265 91.4457 15.265C92.0718 15.265 92.544 15.0103 92.8624 14.501H95.6479C95.0855 16.3686 93.6795 17.3024 91.4298 17.3024C90.7401 17.3024 90.1087 17.2016 89.5357 17C88.9626 16.7878 88.4692 16.4906 88.0553 16.1086C87.6521 15.7266 87.3391 15.2703 87.1162 14.7397C86.8934 14.2092 86.782 13.6149 86.782 12.957C86.782 12.2779 86.8881 11.6677 87.1003 11.1265C87.3125 10.5747 87.615 10.1078 88.0076 9.72578C88.4002 9.34376 88.8724 9.05194 89.4242 8.85032C89.9867 8.63809 90.618 8.53198 91.3184 8.53198C92.0082 8.53198 92.6289 8.63809 93.1807 8.85032C93.7325 9.05194 94.1994 9.34907 94.5815 9.7417C94.9635 10.1343 95.2553 10.6171 95.4569 11.1902C95.6585 11.7526 95.7593 12.3893 95.7593 13.1003V13.4027H89.6948ZM103.387 11.4767C102.889 11.1371 102.384 10.9673 101.875 10.9673C101.599 10.9673 101.339 11.0151 101.095 11.1106C100.862 11.2061 100.655 11.344 100.474 11.5244C100.294 11.6942 100.151 11.9011 100.045 12.1452C99.9491 12.3787 99.9014 12.644 99.9014 12.9411C99.9014 13.2276 99.9491 13.4929 100.045 13.7369C100.151 13.9704 100.289 14.1773 100.458 14.3577C100.639 14.5275 100.851 14.6602 101.095 14.7557C101.339 14.8512 101.599 14.8989 101.875 14.8989C102.416 14.8989 102.92 14.7132 103.387 14.3418V16.7931C102.676 17.1008 102.002 17.2547 101.366 17.2547C100.772 17.2547 100.204 17.1539 99.6626 16.9522C99.132 16.7506 98.6598 16.4641 98.246 16.0927C97.8427 15.7107 97.5191 15.2597 97.275 14.7397C97.0309 14.2092 96.9089 13.6202 96.9089 12.9729C96.9089 12.3256 97.0256 11.7367 97.2591 11.2061C97.4925 10.6649 97.8109 10.2033 98.2141 9.82128C98.6174 9.42865 99.0949 9.12623 99.6467 8.91399C100.209 8.69115 100.809 8.57973 101.445 8.57973C102.146 8.57973 102.793 8.72829 103.387 9.02542V11.4767ZM108.067 11.2379V17H105.186V11.2379H104.231V8.83441H105.186V6.38314H108.067V8.83441H109.706V11.2379H108.067ZM119.731 17H110.069L113.046 13.912C113.831 13.0949 114.447 12.4052 114.892 11.8428C115.338 11.2698 115.667 10.7869 115.879 10.3943C116.102 10.0017 116.24 9.68333 116.293 9.43927C116.346 9.1952 116.373 8.98828 116.373 8.81849C116.373 8.63809 116.341 8.463 116.277 8.29322C116.224 8.12343 116.139 7.97487 116.022 7.84753C115.906 7.70958 115.762 7.60347 115.593 7.52919C115.433 7.44429 115.242 7.40185 115.02 7.40185C114.595 7.40185 114.261 7.5398 114.017 7.8157C113.783 8.0916 113.667 8.43647 113.667 8.85032C113.667 8.96705 113.683 9.13684 113.714 9.35968H110.308C110.308 8.65932 110.42 8.02262 110.642 7.4496C110.876 6.87658 111.199 6.38314 111.613 5.96929C112.027 5.55544 112.515 5.23709 113.078 5.01425C113.651 4.7914 114.277 4.67998 114.956 4.67998C115.625 4.67998 116.24 4.7861 116.802 4.99833C117.375 5.21056 117.869 5.50768 118.283 5.8897C118.697 6.27172 119.02 6.72801 119.254 7.25859C119.487 7.77856 119.604 8.34628 119.604 8.96175C119.604 9.61966 119.461 10.2298 119.174 10.7922C118.898 11.344 118.452 11.9118 117.837 12.4954L115.847 14.3577H119.731V17ZM126.545 12.1452V7.41776L123.791 12.1452H126.545ZM129.442 12.1452H130.89V14.5328H129.442V17H126.545V14.5328H120.751V12.5272L125.335 4.99833H129.442V12.1452Z" fill="#0E2D52"/>
</svg>
