<svg width="16" height="16" viewBox="0 0 16 16" fill="none" xmlns="http://www.w3.org/2000/svg">
<path d="M15.7939 4.17526C15.7874 4.15658 15.7795 4.13811 15.77 4.12005L14.1354 1.00936C14.0552 0.856653 13.8787 0.75 13.7062 0.75H2.29287C2.12035 0.75 1.94382 0.856665 1.86359 1.00936L0.228994 4.12005C0.219512 4.1381 0.211684 4.15656 0.205151 4.17523C0.165957 4.22593 0.142578 4.28947 0.142578 4.35851C0.142578 5.00349 0.318662 5.61372 0.638389 6.07677C0.801114 6.31244 0.993086 6.49899 1.20897 6.63123C1.2172 6.63628 1.22551 6.64103 1.23379 6.6459V14.8383C1.23379 15.0653 1.4185 15.25 1.64553 15.25H14.3535C14.5805 15.25 14.7653 15.0653 14.7653 14.8383V6.6459C14.7735 6.64103 14.7818 6.63627 14.7901 6.63123C15.0059 6.49899 15.1979 6.31244 15.3606 6.07677C15.6804 5.61372 15.8564 5.0035 15.8564 4.35851C15.8564 4.28948 15.8331 4.22595 15.7939 4.17526ZM2.36239 1.35H13.6366L15.0599 4.05851H0.939126L2.36239 1.35ZM12.2182 4.65851C12.1758 5.06762 12.0467 5.4425 11.8441 5.73585C11.6163 6.06575 11.3245 6.24743 11.0223 6.24743C10.7201 6.24743 10.4282 6.06575 10.2004 5.73585C9.99789 5.44249 9.86877 5.06762 9.82634 4.65851H12.2182ZM9.19546 4.65851C9.15303 5.06762 9.02392 5.4425 8.82136 5.73585C8.59357 6.06575 8.30171 6.24743 7.99952 6.24743C7.69732 6.24743 7.40545 6.06575 7.17767 5.73585C6.97512 5.44249 6.846 5.06762 6.80356 4.65851H9.19546ZM6.17269 4.65851C6.13025 5.06762 6.00114 5.4425 5.79858 5.73585C5.57081 6.06575 5.27894 6.24743 4.97674 6.24743C4.67455 6.24743 4.38269 6.06575 4.15491 5.73585C3.95235 5.44249 3.82324 5.06762 3.7808 4.65851H6.17269ZM1.13212 5.73585C0.92957 5.44249 0.800454 5.06762 0.758018 4.65851H3.14992C3.10749 5.06762 2.97837 5.4425 2.77582 5.73585C2.54803 6.06575 2.25616 6.24743 1.95397 6.24743C1.65178 6.24743 1.35991 6.06575 1.13212 5.73585ZM10.2686 14.65H5.73043V11.1941C5.73043 10.0002 6.70175 9.0289 7.89566 9.0289H8.10338C9.29729 9.0289 10.2686 10.0002 10.2686 11.1941L10.2686 14.65ZM14.1653 14.65H10.8686V11.1941C10.8686 10.4582 10.5802 9.76456 10.0566 9.24092C9.53292 8.71728 8.83927 8.4289 8.10338 8.4289H7.89565C7.15976 8.4289 6.4661 8.71728 5.94246 9.24093C5.41882 9.76457 5.13043 10.4582 5.13043 11.1941V14.65H1.83379V6.84198C1.87361 6.84547 1.91366 6.84743 1.95397 6.84743C2.21413 6.84743 2.46479 6.77469 2.69898 6.63123C2.91486 6.49899 3.10683 6.31244 3.26956 6.07677C3.34245 5.9712 3.40778 5.8579 3.46536 5.73836C3.52294 5.8579 3.58827 5.9712 3.66117 6.07677C3.82389 6.31244 4.01586 6.49899 4.23174 6.63123C4.46593 6.77469 4.71658 6.84743 4.97674 6.84743C5.2369 6.84743 5.48756 6.77469 5.72175 6.63123C5.93763 6.49899 6.1296 6.31244 6.29233 6.07677C6.36522 5.9712 6.43055 5.8579 6.48813 5.73836C6.5457 5.85791 6.61104 5.9712 6.68394 6.07677C6.84667 6.31244 7.03863 6.49899 7.25451 6.63123C7.4887 6.77469 7.73936 6.84743 7.99952 6.84743C8.25968 6.84743 8.51033 6.77469 8.74452 6.63123C8.9604 6.49899 9.15238 6.31244 9.3151 6.07677C9.38799 5.9712 9.45332 5.8579 9.5109 5.73837C9.56848 5.85791 9.63381 5.9712 9.70671 6.07677C9.86944 6.31244 10.0614 6.49899 10.2773 6.63123C10.5115 6.77469 10.7621 6.84743 11.0223 6.84743C11.2825 6.84743 11.5331 6.77469 11.7673 6.63123C11.9832 6.49899 12.1751 6.31244 12.3379 6.07677C12.4108 5.9712 12.4761 5.8579 12.5337 5.73837C12.5913 5.8579 12.6566 5.9712 12.7295 6.07677C12.8922 6.31244 13.0842 6.49899 13.3001 6.63123C13.5342 6.77469 13.7849 6.84742 14.0451 6.84742C14.0854 6.84742 14.1254 6.84547 14.1653 6.84198L14.1653 14.65ZM14.8669 5.73585C14.7181 5.9513 14.542 6.10349 14.3536 6.18318C14.351 6.18421 14.3485 6.18524 14.346 6.18633C14.2482 6.22658 14.1472 6.24743 14.0451 6.24743C13.7429 6.24743 13.451 6.06575 13.2232 5.73585C13.0207 5.44249 12.8915 5.06762 12.8491 4.65851H15.241C15.1986 5.06762 15.0695 5.4425 14.8669 5.73585Z" fill="white"/>
</svg>
