<svg width="38" height="37" viewBox="0 0 38 37" fill="none" xmlns="http://www.w3.org/2000/svg">
<circle cx="18.3871" cy="18.3871" r="18.3871" fill="white"/>
<mask id="mask0_8079_41761" style="mask-type:luminance" maskUnits="userSpaceOnUse" x="11" y="9" width="15" height="14">
<path fill-rule="evenodd" clip-rule="evenodd" d="M11.4922 9.50098H25.6632V22.7918H11.4922V9.50098Z" fill="white"/>
</mask>
<g mask="url(#mask0_8079_41761)">
<path fill-rule="evenodd" clip-rule="evenodd" d="M18.5767 10.6504C15.8991 10.6504 14.0328 12.748 14.0328 14.6304C14.0328 16.2232 13.5907 16.9594 13.2 17.6091C12.8866 18.1309 12.6392 18.543 12.6392 19.4386C12.7671 20.8836 13.721 21.6428 18.5767 21.6428C23.4056 21.6428 24.3893 20.8499 24.5165 19.3888C24.5142 18.543 24.2667 18.1309 23.9534 17.6091C23.5627 16.9594 23.1206 16.2232 23.1206 14.6304C23.1206 12.748 21.2543 10.6504 18.5767 10.6504ZM18.5766 22.7918C14.9942 22.7918 11.7565 22.539 11.4922 19.4875C11.4899 18.2249 11.8753 17.5829 12.2154 17.0175C12.5594 16.4444 12.8835 15.9043 12.8835 14.6302C12.8835 12.1533 15.1711 9.50098 18.5766 9.50098C21.982 9.50098 24.2697 12.1533 24.2697 14.6302C24.2697 15.9043 24.5938 16.4444 24.9378 17.0175C25.2779 17.5829 25.6633 18.2249 25.6633 19.4384C25.3959 22.539 22.159 22.7918 18.5766 22.7918Z" fill="#0E2D52"/>
</g>
<path fill-rule="evenodd" clip-rule="evenodd" d="M18.5389 25.9723H18.5374C17.6786 25.9715 16.8657 25.593 16.249 24.9058C16.0368 24.6706 16.0559 24.3067 16.2919 24.0953C16.5279 23.8823 16.891 23.9014 17.1032 24.1382C17.5001 24.5802 18.0095 24.8231 18.5382 24.8231H18.5389C19.0699 24.8231 19.5816 24.5802 19.9793 24.1374C20.1923 23.9022 20.5554 23.883 20.7906 24.0953C21.0266 24.3075 21.0457 24.6714 20.8335 24.9066C20.2145 25.5938 19.4001 25.9723 18.5389 25.9723Z" fill="#130F26"/>
<rect x="24.8902" y="1.60111" width="12.7348" height="12.7348" rx="6.36738" fill="#ED4944"/>
<rect x="24.8902" y="1.60111" width="12.7348" height="12.7348" rx="6.36738" stroke="white" stroke-width="0.749104"/>
<path d="M29.0678 11.4688V10.5987H30.7678V6.04875H29.0678V5.39875C29.2878 5.38542 29.5311 5.34542 29.7978 5.27875C30.0645 5.21208 30.3311 5.12208 30.5978 5.00875C30.8645 4.89542 31.1078 4.75875 31.3278 4.59875H31.8178V10.5987H33.3878V11.4688H29.0678Z" fill="white"/>
</svg>
