<svg width="18" height="18" viewBox="0 0 18 18" fill="none" xmlns="http://www.w3.org/2000/svg">
<path fill-rule="evenodd" clip-rule="evenodd" d="M8.99966 7.23096C8.00216 7.23096 7.19141 8.04246 7.19141 9.03996C7.19141 10.0367 8.00216 10.8475 8.99966 10.8475C9.99716 10.8475 10.8087 10.0367 10.8087 9.03996C10.8087 8.04246 9.99716 7.23096 8.99966 7.23096ZM8.99966 11.9725C7.38191 11.9725 6.06641 10.657 6.06641 9.03996C6.06641 7.42221 7.38191 6.10596 8.99966 6.10596C10.6174 6.10596 11.9337 7.42221 11.9337 9.03996C11.9337 10.657 10.6174 11.9725 8.99966 11.9725Z" fill="#130F26"/>
<mask id="mask0_8621_37800" style="mask-type:luminance" maskUnits="userSpaceOnUse" x="1" y="3" width="16" height="13">
<path fill-rule="evenodd" clip-rule="evenodd" d="M1.5 3.00012H16.4999V15.0789H1.5V3.00012Z" fill="white"/>
</mask>
<g mask="url(#mask0_8621_37800)">
<path fill-rule="evenodd" clip-rule="evenodd" d="M2.67731 9.03932C4.07231 12.1211 6.42206 13.9533 8.99981 13.9541C11.5776 13.9533 13.9273 12.1211 15.3223 9.03932C13.9273 5.95832 11.5776 4.12607 8.99981 4.12532C6.42281 4.12607 4.07231 5.95832 2.67731 9.03932ZM9.00131 15.0791H8.99831H8.99756C5.89556 15.0768 3.11006 12.9026 1.54556 9.26132C1.48481 9.11957 1.48481 8.95907 1.54556 8.81732C3.11006 5.17682 5.89631 3.00257 8.99756 3.00032C8.99906 2.99957 8.99906 2.99957 8.99981 3.00032C9.00131 2.99957 9.00131 2.99957 9.00206 3.00032C12.1041 3.00257 14.8896 5.17682 16.4541 8.81732C16.5156 8.95907 16.5156 9.11957 16.4541 9.26132C14.8903 12.9026 12.1041 15.0768 9.00206 15.0791H9.00131Z" fill="#130F26"/>
</g>
</svg>
