<svg width="18" height="18" viewBox="0 0 18 18" fill="none" xmlns="http://www.w3.org/2000/svg">
<path fill-rule="evenodd" clip-rule="evenodd" d="M7.3207 11.7129C7.1767 11.7129 7.0327 11.6581 6.9232 11.5479C6.3697 10.9951 6.06445 10.2601 6.06445 9.47864C6.06445 7.85864 7.38145 6.54089 8.99995 6.54089C9.77845 6.54089 10.5345 6.85514 11.0737 7.40339C11.2912 7.62539 11.289 7.98089 11.067 8.19839C10.8457 8.41739 10.4902 8.41364 10.272 8.19314C9.9427 7.85789 9.4792 7.66589 8.99995 7.66589C8.0017 7.66589 7.18945 8.47889 7.18945 9.47864C7.18945 9.95939 7.3777 10.4124 7.7182 10.7529C7.93795 10.9726 7.93795 11.3281 7.71895 11.5479C7.6087 11.6581 7.4647 11.7129 7.3207 11.7129Z" fill="#130F26"/>
<path fill-rule="evenodd" clip-rule="evenodd" d="M9.42519 12.3684C9.15894 12.3684 8.92194 12.1779 8.87244 11.9064C8.81694 11.6012 9.01944 11.3079 9.32544 11.2524C10.0604 11.1189 10.6424 10.5354 10.7744 9.79966C10.8299 9.49441 11.1224 9.29341 11.4277 9.34591C11.7337 9.40066 11.9369 9.69316 11.8822 9.99916C11.6669 11.1939 10.7204 12.1419 9.52644 12.3594C9.49269 12.3654 9.45819 12.3684 9.42519 12.3684Z" fill="#130F26"/>
<mask id="mask0_8621_37811" style="mask-type:luminance" maskUnits="userSpaceOnUse" x="1" y="3" width="13" height="12">
<path fill-rule="evenodd" clip-rule="evenodd" d="M1.5 3.46838H13.5647V14.042H1.5V3.46838Z" fill="white"/>
</mask>
<g mask="url(#mask0_8621_37811)">
<path fill-rule="evenodd" clip-rule="evenodd" d="M4.99088 14.042C4.86937 14.042 4.74713 14.0022 4.64363 13.922C3.37538 12.926 2.30362 11.4657 1.54613 9.70023C1.48462 9.55773 1.48462 9.39723 1.54613 9.25548C2.31188 7.48248 3.39037 6.01473 4.66537 5.01198C7.26487 2.95473 10.7254 2.94798 13.3511 5.02698C13.5949 5.21973 13.6361 5.57373 13.4434 5.81748C13.2499 6.05973 12.8974 6.10248 12.6529 5.90898C10.4284 4.14798 7.56262 4.15398 5.36212 5.89548C4.28513 6.74298 3.36038 7.97748 2.67788 9.47898C3.35363 10.9715 4.27013 12.1985 5.33888 13.037C5.58337 13.229 5.62538 13.583 5.43338 13.8267C5.32238 13.9677 5.15738 14.042 4.99088 14.042Z" fill="#130F26"/>
</g>
<mask id="mask1_8621_37811" style="mask-type:luminance" maskUnits="userSpaceOnUse" x="6" y="6" width="11" height="10">
<path fill-rule="evenodd" clip-rule="evenodd" d="M6.53809 6.55591H16.5V15.5171H6.53809V6.55591Z" fill="white"/>
</mask>
<g mask="url(#mask1_8621_37811)">
<path fill-rule="evenodd" clip-rule="evenodd" d="M9.00006 15.5171C8.29731 15.5171 7.59831 15.4031 6.92331 15.1788C6.62856 15.0806 6.46881 14.7618 6.56706 14.4671C6.66531 14.1716 6.98256 14.0148 7.27881 14.1108C7.83906 14.2976 8.41806 14.3921 9.00006 14.3921C11.5711 14.3921 13.9208 12.5606 15.3226 9.47731C14.9806 8.72806 14.5823 8.04931 14.1368 7.45681C13.9501 7.20856 13.9996 6.85531 14.2478 6.66856C14.4953 6.48181 14.8486 6.53281 15.0353 6.78031C15.5783 7.50106 16.0553 8.33431 16.4536 9.25381C16.5158 9.39631 16.5158 9.55831 16.4536 9.70006C14.8816 13.3428 12.0953 15.5171 9.00006 15.5171Z" fill="#130F26"/>
</g>
<mask id="mask2_8621_37811" style="mask-type:luminance" maskUnits="userSpaceOnUse" x="2" y="3" width="14" height="13">
<path fill-rule="evenodd" clip-rule="evenodd" d="M2.52246 3.00031H15.4776V15.9551H2.52246V3.00031Z" fill="white"/>
</mask>
<g mask="url(#mask2_8621_37811)">
<path fill-rule="evenodd" clip-rule="evenodd" d="M3.08477 15.9551C2.94077 15.9551 2.79677 15.9003 2.68727 15.7901C2.46752 15.5703 2.46752 15.2148 2.68727 14.9951L14.5178 3.16457C14.7375 2.94482 15.093 2.94482 15.3128 3.16457C15.5325 3.38432 15.5325 3.74057 15.3128 3.96032L3.48227 15.7901C3.37277 15.9003 3.22877 15.9551 3.08477 15.9551Z" fill="#130F26"/>
</g>
</svg>
