<svg width="16" height="17" viewBox="0 0 16 17" fill="none" xmlns="http://www.w3.org/2000/svg">
<mask id="mask0_9008_2034" style="mask-type:luminance" maskUnits="userSpaceOnUse" x="0" y="0" width="16" height="16">
<path fill-rule="evenodd" clip-rule="evenodd" d="M0.5 0.5H15.1076V15.1077H0.5V0.5Z" fill="white"/>
</mask>
<g mask="url(#mask0_9008_2034)">
<path fill-rule="evenodd" clip-rule="evenodd" d="M7.80425 1.625C4.397 1.625 1.625 4.39625 1.625 7.8035C1.625 11.2108 4.397 13.9827 7.80425 13.9827C11.2108 13.9827 13.9827 11.2108 13.9827 7.8035C13.9827 4.39625 11.2108 1.625 7.80425 1.625ZM7.80425 15.1077C3.77675 15.1077 0.5 11.831 0.5 7.8035C0.5 3.776 3.77675 0.5 7.80425 0.5C11.8317 0.5 15.1077 3.776 15.1077 7.8035C15.1077 11.831 11.8317 15.1077 7.80425 15.1077Z" fill="#0E2D52"/>
</g>
<mask id="mask1_9008_2034" style="mask-type:luminance" maskUnits="userSpaceOnUse" x="11" y="12" width="5" height="5">
<path fill-rule="evenodd" clip-rule="evenodd" d="M11.9297 12.2803H15.6977V16.0413H11.9297V12.2803Z" fill="white"/>
</mask>
<g mask="url(#mask1_9008_2034)">
<path fill-rule="evenodd" clip-rule="evenodd" d="M15.1354 16.0413C14.9921 16.0413 14.8481 15.9866 14.7379 15.8771L12.0949 13.2416C11.8751 13.0218 11.8744 12.6656 12.0941 12.4458C12.3131 12.2246 12.6694 12.2261 12.8899 12.4443L15.5329 15.0806C15.7526 15.3003 15.7534 15.6558 15.5336 15.8756C15.4241 15.9866 15.2794 16.0413 15.1354 16.0413Z" fill="#0E2D52"/>
</g>
</svg>
