<svg width="21" height="21" viewBox="0 0 21 21" fill="none" xmlns="http://www.w3.org/2000/svg">
<path d="M10.4993 10.5003H10.5077M13.8327 5.50033V3.83366C13.8327 3.39163 13.6571 2.96771 13.3445 2.65515C13.032 2.34259 12.608 2.16699 12.166 2.16699H8.83268C8.39066 2.16699 7.96673 2.34259 7.65417 2.65515C7.34161 2.96771 7.16602 3.39163 7.16602 3.83366V5.50033M18.8327 11.3337C16.36 12.9661 13.4623 13.8364 10.4993 13.8364C7.53639 13.8364 4.63869 12.9661 2.16602 11.3337M3.83268 5.50033H17.166C18.0865 5.50033 18.8327 6.24652 18.8327 7.16699V15.5003C18.8327 16.4208 18.0865 17.167 17.166 17.167H3.83268C2.91221 17.167 2.16602 16.4208 2.16602 15.5003V7.16699C2.16602 6.24652 2.91221 5.50033 3.83268 5.50033Z" stroke="#17BEBB" stroke-linecap="round" stroke-linejoin="round"/>
</svg>
