<svg width="18" height="18" viewBox="0 0 18 18" fill="none" xmlns="http://www.w3.org/2000/svg">
<mask id="mask0_9021_836" style="mask-type:luminance" maskUnits="userSpaceOnUse" x="0" y="0" width="18" height="18">
<path fill-rule="evenodd" clip-rule="evenodd" d="M0.666016 0.666992H17.9342V17.9351H0.666016V0.666992Z" fill="white"/>
</mask>
<g mask="url(#mask0_9021_836)">
<path fill-rule="evenodd" clip-rule="evenodd" d="M9.30018 1.91699C5.22852 1.91699 1.91602 5.23033 1.91602 9.30116C1.91602 13.3728 5.22852 16.6853 9.30018 16.6853C13.3718 16.6853 16.6843 13.3728 16.6843 9.30116C16.6843 5.23033 13.3718 1.91699 9.30018 1.91699ZM9.30018 17.9353C4.53935 17.9353 0.666016 14.062 0.666016 9.30116C0.666016 4.54033 4.53935 0.666992 9.30018 0.666992C14.061 0.666992 17.9343 4.54033 17.9343 9.30116C17.9343 14.062 14.061 17.9353 9.30018 17.9353Z" fill="#A0AEC0"/>
</g>
</svg>
