<svg width="15" height="15" viewBox="0 0 15 15" fill="none" xmlns="http://www.w3.org/2000/svg">
<path d="M11.8945 9.72656C11.0263 9.72656 10.2548 10.1485 9.77408 10.798L5.63531 8.68289C5.70475 8.44699 5.74219 8.19753 5.74219 7.93945C5.74219 7.58991 5.67366 7.25613 5.54959 6.9506L9.88729 4.3444C10.3713 4.91247 11.0915 5.27344 11.8945 5.27344C13.3484 5.27344 14.5312 4.09061 14.5312 2.63672C14.5312 1.18283 13.3484 0 11.8945 0C10.4406 0 9.25781 1.18283 9.25781 2.63672C9.25781 2.97275 9.32112 3.29423 9.43623 3.59004L5.0877 6.20273C4.60406 5.65143 3.89476 5.30273 3.10547 5.30273C1.65158 5.30273 0.46875 6.48557 0.46875 7.93945C0.46875 9.39334 1.65158 10.5762 3.10547 10.5762C3.98795 10.5762 4.77047 10.1404 5.24933 9.47268L9.37608 11.5816C9.29924 11.8287 9.25781 12.0912 9.25781 12.3633C9.25781 13.8172 10.4406 15 11.8945 15C13.3484 15 14.5312 13.8172 14.5312 12.3633C14.5312 10.9094 13.3484 9.72656 11.8945 9.72656ZM11.8945 0.878906C12.8638 0.878906 13.6523 1.66746 13.6523 2.63672C13.6523 3.60598 12.8638 4.39453 11.8945 4.39453C10.9253 4.39453 10.1367 3.60598 10.1367 2.63672C10.1367 1.66746 10.9253 0.878906 11.8945 0.878906ZM3.10547 9.69727C2.13621 9.69727 1.34766 8.90871 1.34766 7.93945C1.34766 6.9702 2.13621 6.18164 3.10547 6.18164C4.07473 6.18164 4.86328 6.9702 4.86328 7.93945C4.86328 8.90871 4.07473 9.69727 3.10547 9.69727ZM11.8945 14.1211C10.9253 14.1211 10.1367 13.3325 10.1367 12.3633C10.1367 11.394 10.9253 10.6055 11.8945 10.6055C12.8638 10.6055 13.6523 11.394 13.6523 12.3633C13.6523 13.3325 12.8638 14.1211 11.8945 14.1211Z" fill="#0E2D52"/>
</svg>
