<svg width="40" height="40" viewBox="0 0 40 40" fill="none" xmlns="http://www.w3.org/2000/svg">
<g clip-path="url(#clip0_8123_37909)">
<path d="M21.2602 2.51468C18.7975 2.51018 16.3581 2.99219 14.0821 3.93304C11.8062 4.87388 9.73846 6.25503 7.99773 7.99718C0.685234 15.3097 0.685234 27.2047 8.00023 34.5172C15.3127 41.8272 27.2077 41.8272 34.5202 34.5172C41.8302 27.2047 41.8302 15.3097 34.5202 7.99718C32.7805 6.25507 30.7137 4.8739 28.4386 3.93304C26.1634 2.99217 23.7248 2.51015 21.2627 2.51468H21.2602ZM21.2602 4.99968C25.4152 4.99968 29.5702 6.58718 32.7502 9.76468C34.2616 11.2727 35.4606 13.064 36.2788 15.0361C37.0969 17.0081 37.518 19.1222 37.518 21.2572C37.518 23.3922 37.0969 25.5062 36.2788 27.4783C35.4606 29.4503 34.2616 31.2417 32.7502 32.7497C31.2422 34.261 29.4509 35.4601 27.4788 36.2782C25.5068 37.0963 23.3928 37.5174 21.2577 37.5174C19.1227 37.5174 17.0087 37.0963 15.0366 36.2782C13.0646 35.4601 11.2733 34.261 9.76523 32.7497C8.25389 31.2417 7.05483 29.4503 6.23671 27.4783C5.41859 25.5062 4.99748 23.3922 4.99748 21.2572C4.99748 19.1222 5.41859 17.0081 6.23671 15.0361C7.05483 13.064 8.25389 11.2727 9.76523 9.76468C11.2728 8.2522 13.0644 7.05261 15.0371 6.23487C17.0099 5.41712 19.1247 4.99735 21.2602 4.99968ZM28.6602 16.2547C28.4235 16.2769 28.198 16.3663 28.0102 16.5122L18.8752 23.3622L14.6427 19.1322C14.5274 19.0128 14.3895 18.9176 14.237 18.8521C14.0845 18.7865 13.9205 18.7521 13.7545 18.7506C13.5885 18.7492 13.4239 18.7808 13.2703 18.8437C13.1167 18.9065 12.9771 18.9993 12.8597 19.1167C12.7424 19.2341 12.6496 19.3736 12.5867 19.5272C12.5239 19.6809 12.4922 19.8455 12.4937 20.0114C12.4951 20.1774 12.5296 20.3414 12.5951 20.4939C12.6606 20.6464 12.7558 20.7844 12.8752 20.8997L17.8752 25.8997C18.0877 26.1123 18.3698 26.2412 18.6696 26.2628C18.9694 26.2844 19.267 26.1972 19.5077 26.0172L29.5077 18.5172C29.7196 18.3627 29.8776 18.1456 29.9593 17.8964C30.0409 17.6472 30.0422 17.3787 29.9629 17.1288C29.8835 16.8789 29.7276 16.6602 29.5171 16.5038C29.3067 16.3474 29.0524 16.2611 28.7902 16.2572C28.7478 16.255 28.7052 16.255 28.6627 16.2572L28.6602 16.2547Z" fill="#34A853"/>
</g>
<defs>
<clipPath id="clip0_8123_37909">
<rect width="40" height="40" fill="white"/>
</clipPath>
</defs>
</svg>
