<svg width="34" height="34" viewBox="0 0 34 34" fill="none" xmlns="http://www.w3.org/2000/svg">
<circle cx="17" cy="17" r="17" fill="#E7F2FF"/>
<path d="M19.6667 14.4963V19.333C19.6665 20.233 19.386 21.1107 18.8643 21.844C18.3425 22.5774 17.6054 23.1301 16.7552 23.4255C15.905 23.7208 14.9839 23.744 14.1199 23.492C13.2559 23.24 12.4918 22.7252 11.9337 22.0191C11.3756 21.313 11.0512 20.4506 11.0056 19.5518C10.9599 18.6529 11.1953 17.7621 11.679 17.0031C12.1628 16.2441 12.8708 15.6546 13.7049 15.3163C14.5389 14.9781 15.4576 14.908 16.3333 15.1157V17.2243C15.8765 17.0077 15.3617 16.9452 14.8664 17.0464C14.3711 17.1476 13.922 17.4069 13.5867 17.7853C13.2515 18.1638 13.0482 18.6409 13.0076 19.1448C12.9669 19.6487 13.091 20.1522 13.3612 20.5795C13.6314 21.0069 14.033 21.3349 14.5058 21.5142C14.9785 21.6935 15.4966 21.7144 15.9822 21.5738C16.4679 21.4332 16.8947 21.1387 17.1985 20.7346C17.5023 20.3304 17.6666 19.8386 17.6667 19.333V10.333H19.6667C19.6667 11.2171 20.0179 12.0649 20.643 12.69C21.2681 13.3152 22.1159 13.6663 23 13.6663V15.6663C21.7879 15.6682 20.6117 15.2553 19.6667 14.4963Z" fill="#0E2D52"/>
</svg>
