<svg width="20" height="20" viewBox="0 0 20 20" fill="none" xmlns="http://www.w3.org/2000/svg">
<path fill-rule="evenodd" clip-rule="evenodd" d="M9.34192 9.34326L8.46942 12.1324L11.2578 11.2591L12.1311 8.46992L9.34192 9.34326ZM7.51609 13.7099C7.35275 13.7099 7.19275 13.6458 7.07359 13.5274C6.90942 13.3624 6.84942 13.1199 6.91942 12.8991L8.24692 8.65826C8.30775 8.46159 8.46109 8.30909 8.65609 8.24826L12.8969 6.92076C13.1194 6.84992 13.3611 6.91076 13.5261 7.07492C13.6903 7.23992 13.7503 7.48242 13.6803 7.70326L12.3536 11.9441C12.2928 12.1399 12.1386 12.2933 11.9436 12.3541L7.70275 13.6816C7.64109 13.7008 7.57775 13.7099 7.51609 13.7099Z" fill="#A0AEC0"/>
<mask id="mask0_9021_831" style="mask-type:luminance" maskUnits="userSpaceOnUse" x="1" y="1" width="18" height="18">
<path fill-rule="evenodd" clip-rule="evenodd" d="M1.66602 1.66699H18.9342V18.9351H1.66602V1.66699Z" fill="white"/>
</mask>
<g mask="url(#mask0_9021_831)">
<path fill-rule="evenodd" clip-rule="evenodd" d="M10.3002 2.91699C6.22852 2.91699 2.91602 6.23033 2.91602 10.3012C2.91602 14.3728 6.22852 17.6853 10.3002 17.6853C14.3718 17.6853 17.6843 14.3728 17.6843 10.3012C17.6843 6.23033 14.3718 2.91699 10.3002 2.91699ZM10.3002 18.9353C5.53935 18.9353 1.66602 15.062 1.66602 10.3012C1.66602 5.54033 5.53935 1.66699 10.3002 1.66699C15.061 1.66699 18.9343 5.54033 18.9343 10.3012C18.9343 15.062 15.061 18.9353 10.3002 18.9353Z" fill="#A0AEC0"/>
</g>
</svg>
