<svg width="34" height="33" viewBox="0 0 34 33" fill="none" xmlns="http://www.w3.org/2000/svg">
<path d="M31.5801 10.9383L28.627 9.00781V1.73438C28.627 1.29925 28.4541 0.881955 28.1464 0.574278C27.8388 0.266601 27.4215 0.09375 26.9863 0.09375H19.3301C19.185 0.09375 19.0459 0.151367 18.9434 0.253926C18.8408 0.356485 18.7832 0.495585 18.7832 0.640625C18.7832 0.785665 18.8408 0.924765 18.9434 1.02732C19.0459 1.12988 19.185 1.1875 19.3301 1.1875H26.9863C27.1314 1.1875 27.2705 1.24512 27.373 1.34768C27.4756 1.45024 27.5332 1.58933 27.5332 1.73438V16.6148L21.9168 21.6187L20.3035 20.2406C19.4315 19.4687 18.3072 19.0425 17.1426 19.0425C15.978 19.0425 14.8536 19.4687 13.9816 20.2406L12.3957 21.6406L6.75196 16.6148V1.73438C6.75196 1.58933 6.80958 1.45024 6.91214 1.34768C7.01469 1.24512 7.15379 1.1875 7.29883 1.1875H14.9551C15.1001 1.1875 15.2392 1.12988 15.3418 1.02732C15.4443 0.924765 15.502 0.785665 15.502 0.640625C15.502 0.495585 15.4443 0.356485 15.3418 0.253926C15.2392 0.151367 15.1001 0.09375 14.9551 0.09375H7.29883C6.86371 0.09375 6.44641 0.266601 6.13874 0.574278C5.83106 0.881955 5.65821 1.29925 5.65821 1.73438V9.00781L2.67227 10.9656C2.06924 11.4258 1.58074 12.0192 1.24492 12.6994C0.909098 13.3795 0.735039 14.1281 0.736335 14.8867V27.9844C0.744993 29.2918 1.27007 30.5428 2.19714 31.4647C3.12421 32.3867 4.3781 32.9048 5.68555 32.9062H28.627C29.9297 32.8977 31.1766 32.3763 32.0977 31.4552C33.0189 30.534 33.5402 29.2871 33.5488 27.9844V14.8867C33.5505 14.1208 33.3734 13.365 33.0317 12.6795C32.6899 11.9941 32.1928 11.3978 31.5801 10.9383ZM28.627 10.3148L30.9457 11.8297C31.2931 12.0962 31.5927 12.4198 31.8316 12.7867L28.627 15.6414V10.3148ZM3.30665 11.857L5.65821 10.3148V15.6414L2.44805 12.7867C2.67799 12.4292 2.96854 12.1146 3.30665 11.857ZM1.83009 27.9844V14.8867C1.83112 14.5294 1.88267 14.1741 1.98321 13.8313L5.81133 17.2492L11.5645 22.368L2.61759 30.2812C2.11279 29.6214 1.83638 28.8152 1.83009 27.9844ZM5.68555 31.8125C4.86163 31.8117 4.05994 31.5451 3.39962 31.0523L14.7035 21.0609C15.3773 20.465 16.2458 20.1361 17.1453 20.1361C18.0448 20.1361 18.9133 20.465 19.5871 21.0609L31.0715 30.9047C30.388 31.484 29.5229 31.8053 28.627 31.8125H5.68555ZM32.4824 27.9844C32.483 28.7393 32.2604 29.4775 31.8426 30.1063L22.7535 22.3352L28.4684 17.2492L32.2965 13.8313C32.3989 14.1738 32.4523 14.5292 32.4551 14.8867L32.4824 27.9844Z" fill="#0E2D52"/>
</svg>
