<svg width="18" height="19" viewBox="0 0 18 19" fill="none" xmlns="http://www.w3.org/2000/svg">
<path fill-rule="evenodd" clip-rule="evenodd" d="M15.5008 7.92871H2.13281C1.82231 7.92871 1.57031 7.67671 1.57031 7.36621C1.57031 7.05571 1.82231 6.80371 2.13281 6.80371H15.5008C15.8113 6.80371 16.0633 7.05571 16.0633 7.36621C16.0633 7.67671 15.8113 7.92871 15.5008 7.92871Z" fill="#0E2D52"/>
<path fill-rule="evenodd" clip-rule="evenodd" d="M12.1514 10.8574C11.8409 10.8574 11.5859 10.6054 11.5859 10.2949C11.5859 9.98442 11.8342 9.73242 12.1447 9.73242H12.1514C12.4619 9.73242 12.7139 9.98442 12.7139 10.2949C12.7139 10.6054 12.4619 10.8574 12.1514 10.8574Z" fill="#0E2D52"/>
<path fill-rule="evenodd" clip-rule="evenodd" d="M8.82331 10.8574C8.51281 10.8574 8.25781 10.6054 8.25781 10.2949C8.25781 9.98442 8.50606 9.73242 8.81656 9.73242H8.82331C9.13381 9.73242 9.38581 9.98442 9.38581 10.2949C9.38581 10.6054 9.13381 10.8574 8.82331 10.8574Z" fill="#0E2D52"/>
<path fill-rule="evenodd" clip-rule="evenodd" d="M5.48812 10.8574C5.17762 10.8574 4.92188 10.6054 4.92188 10.2949C4.92188 9.98442 5.17087 9.73242 5.48137 9.73242H5.48812C5.79862 9.73242 6.05062 9.98442 6.05062 10.2949C6.05062 10.6054 5.79862 10.8574 5.48812 10.8574Z" fill="#0E2D52"/>
<path fill-rule="evenodd" clip-rule="evenodd" d="M12.1514 13.7725C11.8409 13.7725 11.5859 13.5205 11.5859 13.21C11.5859 12.8995 11.8342 12.6475 12.1447 12.6475H12.1514C12.4619 12.6475 12.7139 12.8995 12.7139 13.21C12.7139 13.5205 12.4619 13.7725 12.1514 13.7725Z" fill="#0E2D52"/>
<path fill-rule="evenodd" clip-rule="evenodd" d="M8.82331 13.7725C8.51281 13.7725 8.25781 13.5205 8.25781 13.21C8.25781 12.8995 8.50606 12.6475 8.81656 12.6475H8.82331C9.13381 12.6475 9.38581 12.8995 9.38581 13.21C9.38581 13.5205 9.13381 13.7725 8.82331 13.7725Z" fill="#0E2D52"/>
<path fill-rule="evenodd" clip-rule="evenodd" d="M5.48812 13.7725C5.17762 13.7725 4.92188 13.5205 4.92188 13.21C4.92188 12.8995 5.17087 12.6475 5.48137 12.6475H5.48812C5.79862 12.6475 6.05062 12.8995 6.05062 13.21C6.05062 13.5205 5.79862 13.7725 5.48812 13.7725Z" fill="#0E2D52"/>
<path fill-rule="evenodd" clip-rule="evenodd" d="M11.8457 4.84325C11.5352 4.84325 11.2832 4.59125 11.2832 4.28075V1.8125C11.2832 1.502 11.5352 1.25 11.8457 1.25C12.1562 1.25 12.4082 1.502 12.4082 1.8125V4.28075C12.4082 4.59125 12.1562 4.84325 11.8457 4.84325Z" fill="#0E2D52"/>
<path fill-rule="evenodd" clip-rule="evenodd" d="M5.78711 4.84325C5.47661 4.84325 5.22461 4.59125 5.22461 4.28075V1.8125C5.22461 1.502 5.47661 1.25 5.78711 1.25C6.09761 1.25 6.34961 1.502 6.34961 1.8125V4.28075C6.34961 4.59125 6.09761 4.84325 5.78711 4.84325Z" fill="#0E2D52"/>
<mask id="mask0_8079_40160" style="mask-type:luminance" maskUnits="userSpaceOnUse" x="1" y="2" width="16" height="16">
<path fill-rule="evenodd" clip-rule="evenodd" d="M1.5 2.43457H16.125V17.3752H1.5V2.43457Z" fill="white"/>
</mask>
<g mask="url(#mask0_8079_40160)">
<path fill-rule="evenodd" clip-rule="evenodd" d="M5.64075 3.55957C3.696 3.55957 2.625 4.59682 2.625 6.48007V13.2668C2.625 15.1913 3.696 16.2503 5.64075 16.2503H11.9843C13.929 16.2503 15 15.2108 15 13.3238V6.48007C15.003 5.55382 14.754 4.83382 14.2597 4.33882C13.7512 3.82882 12.9675 3.55957 11.991 3.55957H5.64075ZM11.9843 17.3753H5.64075C3.087 17.3753 1.5 15.8011 1.5 13.2668V6.48007C1.5 3.98407 3.087 2.43457 5.64075 2.43457H11.991C13.2727 2.43457 14.3325 2.81857 15.0563 3.54382C15.759 4.24957 16.1287 5.26432 16.125 6.48157V13.3238C16.125 15.8228 14.538 17.3753 11.9843 17.3753Z" fill="#0E2D52"/>
</g>
</svg>
