<svg width="34" height="34" viewBox="0 0 34 34" fill="none" xmlns="http://www.w3.org/2000/svg">
<circle cx="17" cy="17" r="17" fill="white"/>
<path d="M23.75 17.5C23.75 16.6792 23.5883 15.8665 23.2742 15.1082C22.9602 14.3499 22.4998 13.6609 21.9194 13.0806C21.3391 12.5002 20.6501 12.0398 19.8918 11.7258C19.1335 11.4117 18.3208 11.25 17.5 11.25C15.8424 11.25 14.2527 11.9085 13.0806 13.0806C11.9085 14.2527 11.25 15.8424 11.25 17.5C11.25 19.1576 11.9085 20.7473 13.0806 21.9194C14.2527 23.0915 15.8424 23.75 17.5 23.75C19.1576 23.75 20.7473 23.0915 21.9194 21.9194C23.0915 20.7473 23.75 19.1576 23.75 17.5ZM22.4563 16.875H20.625C20.5219 15.4051 20.0183 13.9915 19.1687 12.7875C20.0415 13.0975 20.8111 13.6438 21.3916 14.3655C21.972 15.0873 22.3406 15.956 22.4563 16.875ZM15.675 18.125H19.375C19.2151 19.6691 18.5569 21.1192 17.5 22.2563C16.4438 21.124 15.8007 19.6683 15.675 18.125ZM15.675 16.875C15.8206 15.3386 16.461 13.8911 17.5 12.75C18.5654 13.8788 19.2251 15.33 19.375 16.875H15.675ZM15.9 12.7687C15.046 13.9794 14.5343 15.398 14.4188 16.875H12.5438C12.6618 15.9447 13.0391 15.0663 13.6326 14.3402C14.2261 13.6141 15.0118 13.0696 15.9 12.7687ZM12.5438 18.125H14.4188C14.5217 19.6008 15.0299 21.0195 15.8875 22.225C15.0025 21.9227 14.22 21.3782 13.6289 20.6535C13.0378 19.9287 12.6619 19.0527 12.5438 18.125ZM19.1375 22.2188C19.9928 21.0129 20.5067 19.5986 20.625 18.125H22.4688C22.3506 19.0502 21.976 19.9238 21.3873 20.6472C20.7986 21.3706 20.0193 21.915 19.1375 22.2188Z" fill="#0E2D52"/>
</svg>
