<svg width="34" height="34" viewBox="0 0 34 34" fill="none" xmlns="http://www.w3.org/2000/svg">
<circle cx="17" cy="17" r="17" fill="#E7F2FF"/>
<path d="M23.75 15.5C23.75 14.6792 23.5883 13.8665 23.2742 13.1082C22.9602 12.3499 22.4998 11.6609 21.9194 11.0806C21.3391 10.5002 20.6501 10.0398 19.8918 9.72575C19.1335 9.41166 18.3208 9.25 17.5 9.25C15.8424 9.25 14.2527 9.90848 13.0806 11.0806C11.9085 12.2527 11.25 13.8424 11.25 15.5C11.25 17.1576 11.9085 18.7473 13.0806 19.9194C14.2527 21.0915 15.8424 21.75 17.5 21.75C19.1576 21.75 20.7473 21.0915 21.9194 19.9194C23.0915 18.7473 23.75 17.1576 23.75 15.5ZM22.4563 14.875H20.625C20.5219 13.4051 20.0183 11.9915 19.1687 10.7875C20.0415 11.0975 20.8111 11.6438 21.3916 12.3655C21.972 13.0873 22.3406 13.956 22.4563 14.875ZM15.675 16.125H19.375C19.2151 17.6691 18.5569 19.1192 17.5 20.2563C16.4438 19.124 15.8007 17.6683 15.675 16.125ZM15.675 14.875C15.8206 13.3386 16.461 11.8911 17.5 10.75C18.5654 11.8788 19.2251 13.33 19.375 14.875H15.675ZM15.9 10.7687C15.046 11.9794 14.5343 13.398 14.4188 14.875H12.5438C12.6618 13.9447 13.0391 13.0663 13.6326 12.3402C14.2261 11.6141 15.0118 11.0696 15.9 10.7687ZM12.5438 16.125H14.4188C14.5217 17.6008 15.0299 19.0195 15.8875 20.225C15.0025 19.9227 14.22 19.3782 13.6289 18.6535C13.0378 17.9287 12.6619 17.0527 12.5438 16.125ZM19.1375 20.2188C19.9928 19.0129 20.5067 17.5986 20.625 16.125H22.4688C22.3506 17.0502 21.976 17.9238 21.3873 18.6472C20.7986 19.3706 20.0193 19.915 19.1375 20.2188Z" fill="#0E2D52"/>
</svg>
