<svg width="60" height="76" viewBox="0 0 60 76" fill="none" xmlns="http://www.w3.org/2000/svg">
<path fill-rule="evenodd" clip-rule="evenodd" d="M59.9952 44.774C59.9952 45.1025 59.9851 45.8149 59.9655 46.3653C59.9171 47.7119 59.8105 49.4494 59.649 50.2412C59.4064 51.4309 59.0401 52.5539 58.5626 53.4886C57.9977 54.5942 57.2768 55.5848 56.4205 56.4395C55.5661 57.2925 54.5767 58.0104 53.4725 58.5733C52.5329 59.052 51.4029 59.4183 50.2065 59.66C49.4226 59.8183 47.698 59.923 46.3599 59.9705C45.809 59.9901 45.0965 60 44.7692 60L15.226 59.9954C14.8974 59.9954 14.1851 59.9853 13.6348 59.9656C12.2881 59.9172 10.5506 59.8106 9.7588 59.649C8.56907 59.4064 7.4461 59.0403 6.51145 58.5627C5.40575 57.9977 4.41521 57.277 3.56048 56.4207C2.7075 55.5661 1.98961 54.5767 1.42694 53.4725C0.948009 52.533 0.581565 51.403 0.340042 50.2065C0.181733 49.4227 0.0770489 47.6981 0.029484 46.36C0.00996499 45.8091 0 45.0965 0 44.7694L0.00472566 15.226C0.00472566 14.8975 0.0146906 14.1851 0.0344152 13.6347C0.0828018 12.2881 0.18954 10.5506 0.350932 9.75882C0.593584 8.56908 0.959823 7.44601 1.43732 6.51136C2.00235 5.40565 2.72301 4.41532 3.57938 3.56049C4.4339 2.7075 5.42321 1.98951 6.52737 1.42684C7.46706 0.948011 8.59711 0.581566 9.79353 0.340043C10.5774 0.181733 12.3019 0.077049 13.64 0.0294841C14.1909 0.00986227 14.9035 0 15.2307 0L44.7739 0.00472567C45.1025 0.00472567 45.8148 0.0147934 46.3652 0.0344152C47.7118 0.082802 49.4493 0.189541 50.2412 0.350932C51.4308 0.593483 52.5538 0.959722 53.4885 1.43732C54.5942 2.00235 55.5846 2.72312 56.4395 3.57939C57.2923 4.43381 58.0104 5.42332 58.5731 6.52738C59.0519 7.46707 59.4183 8.59702 59.6599 9.79354C59.8182 10.5773 59.9228 12.302 59.9704 13.6399C59.99 14.1909 60 14.9034 60 15.2307L59.9952 44.774Z" fill="#1A7BF0"/>
<path d="M37.9105 19.6351H42.3755V12.0826C40.2136 11.8578 38.0415 11.7468 35.868 11.7501C29.408 11.7501 24.9905 15.6926 24.9905 22.9126V29.1351H17.6992V37.5901H24.9905V59.2501H33.7305V37.5901H40.998L42.0905 29.1351H33.7305V23.7438C33.7305 21.2501 34.3955 19.6351 37.9105 19.6351Z" fill="white"/>
<path d="M6.63643 74V66.454H11.9824V67.356H7.68143V69.776H11.5974V70.667H7.68143V74H6.63643ZM14.3575 74.132C14.1448 74.132 13.9322 74.1063 13.7195 74.055C13.5068 74.0037 13.3088 73.9193 13.1255 73.802C12.9422 73.6847 12.7955 73.5233 12.6855 73.318C12.5755 73.1053 12.5205 72.8413 12.5205 72.526C12.5205 72.13 12.6158 71.8037 12.8065 71.547C12.9972 71.2903 13.2612 71.0923 13.5985 70.953C13.9432 70.8063 14.3502 70.7073 14.8195 70.656C15.2888 70.5973 15.7985 70.568 16.3485 70.568V69.908C16.3485 69.6953 16.3118 69.512 16.2385 69.358C16.1652 69.204 16.0332 69.0867 15.8425 69.006C15.6592 68.918 15.3952 68.874 15.0505 68.874C14.7205 68.874 14.4565 68.918 14.2585 69.006C14.0678 69.0867 13.9322 69.193 13.8515 69.325C13.7782 69.457 13.7415 69.6037 13.7415 69.765V69.93H12.8065C12.7992 69.8933 12.7955 69.8567 12.7955 69.82C12.7955 69.7833 12.7955 69.7393 12.7955 69.688C12.7955 69.336 12.8908 69.0427 13.0815 68.808C13.2795 68.566 13.5545 68.3863 13.9065 68.269C14.2585 68.1443 14.6618 68.082 15.1165 68.082C15.6005 68.082 16.0038 68.1517 16.3265 68.291C16.6565 68.4303 16.9022 68.6283 17.0635 68.885C17.2322 69.1417 17.3165 69.4497 17.3165 69.809V72.944C17.3165 73.0833 17.3495 73.1823 17.4155 73.241C17.4815 73.2923 17.5622 73.318 17.6575 73.318H18.0865V73.956C17.9838 74 17.8702 74.0367 17.7455 74.066C17.6208 74.1027 17.4778 74.121 17.3165 74.121C17.1258 74.121 16.9682 74.0807 16.8435 74C16.7188 73.9267 16.6235 73.824 16.5575 73.692C16.4915 73.5527 16.4475 73.3987 16.4255 73.23H16.3485C16.2165 73.4133 16.0478 73.5747 15.8425 73.714C15.6445 73.846 15.4208 73.9487 15.1715 74.022C14.9222 74.0953 14.6508 74.132 14.3575 74.132ZM14.5995 73.318C14.8342 73.318 15.0542 73.2813 15.2595 73.208C15.4722 73.1347 15.6592 73.032 15.8205 72.9C15.9818 72.7607 16.1102 72.5957 16.2055 72.405C16.3008 72.2143 16.3485 72.0053 16.3485 71.778V71.294C15.7545 71.294 15.2485 71.327 14.8305 71.393C14.4125 71.459 14.0898 71.5763 13.8625 71.745C13.6425 71.9137 13.5325 72.152 13.5325 72.46C13.5325 72.658 13.5765 72.8193 13.6645 72.944C13.7525 73.0687 13.8772 73.164 14.0385 73.23C14.1998 73.2887 14.3868 73.318 14.5995 73.318ZM21.0996 74.132C20.5423 74.132 20.073 74.0257 19.6916 73.813C19.3176 73.593 19.0316 73.2593 18.8336 72.812C18.643 72.3573 18.5476 71.789 18.5476 71.107C18.5476 70.425 18.643 69.8603 18.8336 69.413C19.0316 68.9657 19.3213 68.632 19.7026 68.412C20.0913 68.192 20.568 68.082 21.1326 68.082C21.5286 68.082 21.8696 68.1333 22.1556 68.236C22.449 68.3387 22.691 68.489 22.8816 68.687C23.0723 68.885 23.2116 69.1233 23.2996 69.402C23.395 69.6807 23.4426 69.9997 23.4426 70.359H22.4636C22.4636 70.0217 22.416 69.7467 22.3206 69.534C22.2326 69.314 22.0896 69.1527 21.8916 69.05C21.6936 68.94 21.4333 68.885 21.1106 68.885C20.788 68.885 20.5093 68.9583 20.2746 69.105C20.04 69.2443 19.8603 69.468 19.7356 69.776C19.611 70.084 19.5486 70.491 19.5486 70.997V71.228C19.5486 71.7047 19.6073 72.1007 19.7246 72.416C19.8493 72.7313 20.029 72.9623 20.2636 73.109C20.4983 73.2557 20.7843 73.329 21.1216 73.329C21.4516 73.329 21.7156 73.2703 21.9136 73.153C22.119 73.0357 22.2656 72.867 22.3536 72.647C22.449 72.427 22.4966 72.163 22.4966 71.855H23.4426C23.4426 72.1777 23.395 72.4783 23.2996 72.757C23.2116 73.0357 23.0723 73.2777 22.8816 73.483C22.691 73.6883 22.449 73.8497 22.1556 73.967C21.8623 74.077 21.5103 74.132 21.0996 74.132ZM26.9137 74.132C26.3417 74.132 25.8577 74.0257 25.4617 73.813C25.0731 73.593 24.7761 73.2593 24.5707 72.812C24.3727 72.3647 24.2737 71.7963 24.2737 71.107C24.2737 70.4103 24.3727 69.842 24.5707 69.402C24.7761 68.9547 25.0767 68.6247 25.4727 68.412C25.8687 68.192 26.3637 68.082 26.9577 68.082C27.5004 68.082 27.9551 68.1883 28.3217 68.401C28.6884 68.6063 28.9634 68.918 29.1467 69.336C29.3374 69.7467 29.4327 70.2637 29.4327 70.887V71.349H25.2747C25.2894 71.811 25.3554 72.1923 25.4727 72.493C25.5974 72.7863 25.7807 73.0027 26.0227 73.142C26.2647 73.274 26.5691 73.34 26.9357 73.34C27.1851 73.34 27.4014 73.3107 27.5847 73.252C27.7754 73.186 27.9331 73.0943 28.0577 72.977C28.1897 72.8597 28.2887 72.7203 28.3547 72.559C28.4207 72.3977 28.4574 72.2217 28.4647 72.031H29.4107C29.4034 72.339 29.3447 72.625 29.2347 72.889C29.1247 73.1457 28.9634 73.3657 28.7507 73.549C28.5381 73.7323 28.2777 73.8753 27.9697 73.978C27.6617 74.0807 27.3097 74.132 26.9137 74.132ZM25.2967 70.623H28.4317C28.4317 70.3003 28.3951 70.029 28.3217 69.809C28.2484 69.589 28.1421 69.4093 28.0027 69.27C27.8707 69.1307 27.7131 69.0317 27.5297 68.973C27.3537 68.907 27.1521 68.874 26.9247 68.874C26.5874 68.874 26.3014 68.9363 26.0667 69.061C25.8321 69.1857 25.6524 69.3763 25.5277 69.633C25.4031 69.8897 25.3261 70.2197 25.2967 70.623ZM33.3801 74.132C32.9914 74.132 32.6431 74.055 32.3351 73.901C32.0271 73.7397 31.7741 73.4977 31.5761 73.175H31.4991L31.4001 74H30.6301V66.047H31.5981V68.94H31.6641C31.7961 68.7347 31.9501 68.5697 32.1261 68.445C32.3021 68.3203 32.5001 68.2287 32.7201 68.17C32.9401 68.1113 33.1748 68.082 33.4241 68.082C33.8714 68.082 34.2638 68.1883 34.6011 68.401C34.9384 68.6137 35.1988 68.94 35.3821 69.38C35.5728 69.82 35.6681 70.381 35.6681 71.063C35.6681 71.7817 35.5764 72.3683 35.3931 72.823C35.2098 73.2703 34.9494 73.6003 34.6121 73.813C34.2748 74.0257 33.8641 74.132 33.3801 74.132ZM33.1491 73.285C33.4791 73.285 33.7541 73.219 33.9741 73.087C34.2014 72.955 34.3738 72.7387 34.4911 72.438C34.6084 72.13 34.6671 71.7267 34.6671 71.228V70.997C34.6671 70.513 34.6121 70.1207 34.5021 69.82C34.3921 69.512 34.2234 69.2883 33.9961 69.149C33.7688 69.0023 33.4754 68.929 33.1161 68.929C32.9108 68.929 32.7164 68.962 32.5331 69.028C32.3498 69.094 32.1848 69.2077 32.0381 69.369C31.8988 69.5303 31.7888 69.7467 31.7081 70.018C31.6348 70.2893 31.5981 70.623 31.5981 71.019V71.195C31.5981 71.6497 31.6494 72.031 31.7521 72.339C31.8621 72.647 32.0308 72.8817 32.2581 73.043C32.4928 73.2043 32.7898 73.285 33.1491 73.285ZM39.2473 74.132C38.6606 74.132 38.1656 74.0257 37.7623 73.813C37.3663 73.593 37.062 73.2593 36.8493 72.812C36.644 72.3647 36.5413 71.7963 36.5413 71.107C36.5413 70.4103 36.644 69.842 36.8493 69.402C37.062 68.9547 37.3663 68.6247 37.7623 68.412C38.1656 68.192 38.6606 68.082 39.2473 68.082C39.834 68.082 40.3253 68.192 40.7213 68.412C41.1246 68.6247 41.429 68.9547 41.6343 69.402C41.8396 69.842 41.9423 70.4103 41.9423 71.107C41.9423 71.7963 41.8396 72.3647 41.6343 72.812C41.429 73.2593 41.1246 73.593 40.7213 73.813C40.3253 74.0257 39.834 74.132 39.2473 74.132ZM39.2473 73.318C39.6213 73.318 39.933 73.2447 40.1823 73.098C40.4316 72.9513 40.6186 72.724 40.7433 72.416C40.8753 72.1007 40.9413 71.7047 40.9413 71.228V70.986C40.9413 70.502 40.8753 70.106 40.7433 69.798C40.6186 69.49 40.4316 69.2627 40.1823 69.116C39.933 68.9693 39.6213 68.896 39.2473 68.896C38.8733 68.896 38.558 68.9693 38.3013 69.116C38.052 69.2627 37.865 69.49 37.7403 69.798C37.6156 70.106 37.5533 70.502 37.5533 70.986V71.228C37.5533 71.7047 37.6156 72.1007 37.7403 72.416C37.865 72.724 38.052 72.9513 38.3013 73.098C38.558 73.2447 38.8733 73.318 39.2473 73.318ZM45.5207 74.132C44.9341 74.132 44.4391 74.0257 44.0357 73.813C43.6397 73.593 43.3354 73.2593 43.1227 72.812C42.9174 72.3647 42.8147 71.7963 42.8147 71.107C42.8147 70.4103 42.9174 69.842 43.1227 69.402C43.3354 68.9547 43.6397 68.6247 44.0357 68.412C44.4391 68.192 44.9341 68.082 45.5207 68.082C46.1074 68.082 46.5987 68.192 46.9947 68.412C47.3981 68.6247 47.7024 68.9547 47.9077 69.402C48.1131 69.842 48.2157 70.4103 48.2157 71.107C48.2157 71.7963 48.1131 72.3647 47.9077 72.812C47.7024 73.2593 47.3981 73.593 46.9947 73.813C46.5987 74.0257 46.1074 74.132 45.5207 74.132ZM45.5207 73.318C45.8947 73.318 46.2064 73.2447 46.4557 73.098C46.7051 72.9513 46.8921 72.724 47.0167 72.416C47.1487 72.1007 47.2147 71.7047 47.2147 71.228V70.986C47.2147 70.502 47.1487 70.106 47.0167 69.798C46.8921 69.49 46.7051 69.2627 46.4557 69.116C46.2064 68.9693 45.8947 68.896 45.5207 68.896C45.1467 68.896 44.8314 68.9693 44.5747 69.116C44.3254 69.2627 44.1384 69.49 44.0137 69.798C43.8891 70.106 43.8267 70.502 43.8267 70.986V71.228C43.8267 71.7047 43.8891 72.1007 44.0137 72.416C44.1384 72.724 44.3254 72.9513 44.5747 73.098C44.8314 73.2447 45.1467 73.318 45.5207 73.318ZM49.4182 74V66.047H50.3862V71.019L52.8392 68.214H53.9832L52.0032 70.458L54.0932 74H52.9822L51.3762 71.173L50.3862 72.174V74H49.4182Z" fill="#333333"/>
</svg>
