<svg width="72" height="83" viewBox="0 0 72 83" fill="none" xmlns="http://www.w3.org/2000/svg">
<g filter="url(#filter0_d_8079_49195)">
<rect x="6" y="6" width="60" height="60" rx="13" fill="white"/>
<path d="M17.8636 51.7575H24.5455V35.5302L15 28.3711V48.8938C15 50.476 16.2815 51.7575 17.8636 51.7575Z" fill="#4285F4"/>
<path d="M47.4551 51.7575H54.1369C55.7191 51.7575 57.0005 50.476 57.0005 48.8938V28.3711L47.4551 35.5302V51.7575Z" fill="#34A853"/>
<path d="M47.4551 23.1214V35.5305L57.0005 28.3713V24.5532C57.0005 21.0142 52.9604 18.9929 50.1279 21.1168L47.4551 23.1214Z" fill="#FBBC05"/>
<path fill-rule="evenodd" clip-rule="evenodd" d="M24.5449 35.5302V23.1211L35.9995 31.712L47.454 23.1211V35.5302L35.9995 44.1211L24.5449 35.5302Z" fill="#EA4335"/>
<path d="M15 24.5532V28.3713L24.5455 35.5305V23.1214L21.8727 21.1168C19.0401 18.9929 15 21.0142 15 24.5532Z" fill="#C52C1F"/>
</g>
<path d="M25.6359 80.132C24.4185 80.132 23.4909 79.813 22.8529 79.175C22.2222 78.537 21.9069 77.5543 21.9069 76.227C21.9069 75.3617 22.0535 74.6393 22.3469 74.06C22.6402 73.4807 23.0729 73.048 23.6449 72.762C24.2169 72.4687 24.9135 72.322 25.7349 72.322C26.2482 72.322 26.7139 72.377 27.1319 72.487C27.5499 72.597 27.9092 72.7657 28.2099 72.993C28.5179 73.213 28.7525 73.4917 28.9139 73.829C29.0825 74.1663 29.1669 74.566 29.1669 75.028H28.0999C28.0999 74.7053 28.0412 74.4303 27.9239 74.203C27.8065 73.9683 27.6379 73.7777 27.4179 73.631C27.2052 73.4843 26.9559 73.3817 26.6699 73.323C26.3839 73.257 26.0795 73.224 25.7569 73.224C25.3169 73.224 24.9245 73.279 24.5799 73.389C24.2352 73.499 23.9455 73.6713 23.7109 73.906C23.4762 74.1407 23.2965 74.4413 23.1719 74.808C23.0472 75.1747 22.9849 75.611 22.9849 76.117V76.348C22.9849 77.03 23.0875 77.5837 23.2929 78.009C23.5055 78.4343 23.8099 78.746 24.2059 78.944C24.6019 79.1347 25.0785 79.23 25.6359 79.23C26.2005 79.23 26.6662 79.153 27.0329 78.999C27.3995 78.8377 27.6709 78.5957 27.8469 78.273C28.0302 77.9503 28.1219 77.5433 28.1219 77.052V76.92H25.4599V76.029H29.1779V80H28.3859L28.2759 79.043C28.0779 79.2997 27.8432 79.5087 27.5719 79.67C27.3005 79.8313 26.9999 79.9487 26.6699 80.022C26.3472 80.0953 26.0025 80.132 25.6359 80.132ZM30.8707 80V74.214H31.6517L31.7397 75.083H31.8167C31.9634 74.8483 32.1284 74.6577 32.3117 74.511C32.4951 74.3643 32.6967 74.258 32.9167 74.192C33.1367 74.1187 33.3751 74.082 33.6317 74.082C34.0057 74.082 34.3284 74.159 34.5997 74.313C34.8711 74.4597 35.0727 74.7163 35.2047 75.083H35.2707C35.4101 74.8483 35.5714 74.6613 35.7547 74.522C35.9381 74.3753 36.1434 74.2653 36.3707 74.192C36.5981 74.1187 36.8401 74.082 37.0967 74.082C37.4487 74.082 37.7567 74.1443 38.0207 74.269C38.2847 74.3863 38.4901 74.5843 38.6367 74.863C38.7907 75.1343 38.8677 75.501 38.8677 75.963V80H37.8997V76.117C37.8997 75.8823 37.8704 75.688 37.8117 75.534C37.7604 75.38 37.6834 75.2627 37.5807 75.182C37.4781 75.094 37.3571 75.0317 37.2177 74.995C37.0857 74.9583 36.9427 74.94 36.7887 74.94C36.5321 74.94 36.2937 75.006 36.0737 75.138C35.8611 75.27 35.6887 75.4607 35.5567 75.71C35.4247 75.9593 35.3587 76.2563 35.3587 76.601V80H34.3907V76.117C34.3907 75.8823 34.3614 75.688 34.3027 75.534C34.2441 75.38 34.1671 75.2627 34.0717 75.182C33.9764 75.094 33.8591 75.0317 33.7197 74.995C33.5877 74.9583 33.4484 74.94 33.3017 74.94C33.0377 74.94 32.7921 75.006 32.5647 75.138C32.3447 75.27 32.1687 75.4607 32.0367 75.71C31.9047 75.9593 31.8387 76.2563 31.8387 76.601V80H30.8707ZM41.8526 80.132C41.6399 80.132 41.4273 80.1063 41.2146 80.055C41.0019 80.0037 40.8039 79.9193 40.6206 79.802C40.4373 79.6847 40.2906 79.5233 40.1806 79.318C40.0706 79.1053 40.0156 78.8413 40.0156 78.526C40.0156 78.13 40.1109 77.8037 40.3016 77.547C40.4923 77.2903 40.7563 77.0923 41.0936 76.953C41.4383 76.8063 41.8453 76.7073 42.3146 76.656C42.7839 76.5973 43.2936 76.568 43.8436 76.568V75.908C43.8436 75.6953 43.8069 75.512 43.7336 75.358C43.6603 75.204 43.5283 75.0867 43.3376 75.006C43.1543 74.918 42.8903 74.874 42.5456 74.874C42.2156 74.874 41.9516 74.918 41.7536 75.006C41.5629 75.0867 41.4273 75.193 41.3466 75.325C41.2733 75.457 41.2366 75.6037 41.2366 75.765V75.93H40.3016C40.2943 75.8933 40.2906 75.8567 40.2906 75.82C40.2906 75.7833 40.2906 75.7393 40.2906 75.688C40.2906 75.336 40.3859 75.0427 40.5766 74.808C40.7746 74.566 41.0496 74.3863 41.4016 74.269C41.7536 74.1443 42.1569 74.082 42.6116 74.082C43.0956 74.082 43.4989 74.1517 43.8216 74.291C44.1516 74.4303 44.3973 74.6283 44.5586 74.885C44.7273 75.1417 44.8116 75.4497 44.8116 75.809V78.944C44.8116 79.0833 44.8446 79.1823 44.9106 79.241C44.9766 79.2923 45.0573 79.318 45.1526 79.318H45.5816V79.956C45.4789 80 45.3653 80.0367 45.2406 80.066C45.1159 80.1027 44.9729 80.121 44.8116 80.121C44.6209 80.121 44.4633 80.0807 44.3386 80C44.2139 79.9267 44.1186 79.824 44.0526 79.692C43.9866 79.5527 43.9426 79.3987 43.9206 79.23H43.8436C43.7116 79.4133 43.5429 79.5747 43.3376 79.714C43.1396 79.846 42.9159 79.9487 42.6666 80.022C42.4173 80.0953 42.1459 80.132 41.8526 80.132ZM42.0946 79.318C42.3293 79.318 42.5493 79.2813 42.7546 79.208C42.9673 79.1347 43.1543 79.032 43.3156 78.9C43.4769 78.7607 43.6053 78.5957 43.7006 78.405C43.7959 78.2143 43.8436 78.0053 43.8436 77.778V77.294C43.2496 77.294 42.7436 77.327 42.3256 77.393C41.9076 77.459 41.5849 77.5763 41.3576 77.745C41.1376 77.9137 41.0276 78.152 41.0276 78.46C41.0276 78.658 41.0716 78.8193 41.1596 78.944C41.2476 79.0687 41.3723 79.164 41.5336 79.23C41.6949 79.2887 41.8819 79.318 42.0946 79.318ZM46.4607 73.125V72.047H47.4287V73.125H46.4607ZM46.4607 80V74.214H47.4287V80H46.4607ZM48.9974 80V72.047H49.9654V80H48.9974Z" fill="black"/>
<defs>
<filter id="filter0_d_8079_49195" x="0" y="0" width="72" height="72" filterUnits="userSpaceOnUse" color-interpolation-filters="sRGB">
<feFlood flood-opacity="0" result="BackgroundImageFix"/>
<feColorMatrix in="SourceAlpha" type="matrix" values="0 0 0 0 0 0 0 0 0 0 0 0 0 0 0 0 0 0 127 0" result="hardAlpha"/>
<feOffset/>
<feGaussianBlur stdDeviation="3"/>
<feColorMatrix type="matrix" values="0 0 0 0 0 0 0 0 0 0 0 0 0 0 0 0 0 0 0.05 0"/>
<feBlend mode="normal" in2="BackgroundImageFix" result="effect1_dropShadow_8079_49195"/>
<feBlend mode="normal" in="SourceGraphic" in2="effect1_dropShadow_8079_49195" result="shape"/>
</filter>
</defs>
</svg>
