<svg width="60" height="76" viewBox="0 0 60 76" fill="none" xmlns="http://www.w3.org/2000/svg">
<path fill-rule="evenodd" clip-rule="evenodd" d="M59.9952 44.774C59.9952 45.1025 59.9851 45.8149 59.9655 46.3653C59.9171 47.7119 59.8105 49.4494 59.649 50.2412C59.4064 51.4309 59.0401 52.5539 58.5626 53.4886C57.9977 54.5942 57.2768 55.5848 56.4205 56.4395C55.5661 57.2925 54.5767 58.0104 53.4725 58.5733C52.5329 59.052 51.4029 59.4183 50.2065 59.66C49.4226 59.8183 47.698 59.923 46.3599 59.9705C45.809 59.9901 45.0965 60 44.7692 60L15.226 59.9954C14.8974 59.9954 14.1851 59.9853 13.6348 59.9656C12.2881 59.9172 10.5506 59.8106 9.7588 59.649C8.56907 59.4064 7.4461 59.0403 6.51145 58.5627C5.40575 57.9977 4.41521 57.277 3.56048 56.4207C2.7075 55.5661 1.98961 54.5767 1.42694 53.4725C0.948009 52.533 0.581565 51.403 0.340042 50.2065C0.181733 49.4227 0.0770489 47.6981 0.029484 46.36C0.00996499 45.8091 0 45.0965 0 44.7694L0.00472566 15.226C0.00472566 14.8975 0.0146906 14.1851 0.0344152 13.6347C0.0828018 12.2881 0.18954 10.5506 0.350932 9.75882C0.593584 8.56908 0.959823 7.44601 1.43732 6.51136C2.00235 5.40565 2.72301 4.41532 3.57938 3.56049C4.4339 2.7075 5.42321 1.98951 6.52737 1.42684C7.46706 0.948011 8.59711 0.581566 9.79353 0.340043C10.5774 0.181733 12.3019 0.077049 13.64 0.0294841C14.1909 0.00986227 14.9035 0 15.2307 0L44.7739 0.00472567C45.1025 0.00472567 45.8148 0.0147934 46.3652 0.0344152C47.7118 0.082802 49.4493 0.189541 50.2412 0.350932C51.4308 0.593483 52.5538 0.959722 53.4885 1.43732C54.5942 2.00235 55.5846 2.72312 56.4395 3.57939C57.2923 4.43381 58.0104 5.42332 58.5731 6.52738C59.0519 7.46707 59.4183 8.59702 59.6599 9.79354C59.8182 10.5773 59.9228 12.302 59.9704 13.6399C59.99 14.1909 60 14.9034 60 15.2307L59.9952 44.774Z" fill="url(#paint0_linear_8079_49159)"/>
<mask id="mask0_8079_49159" style="mask-type:luminance" maskUnits="userSpaceOnUse" x="0" y="0" width="60" height="60">
<path fill-rule="evenodd" clip-rule="evenodd" d="M59.9952 44.774C59.9952 45.1025 59.9851 45.8149 59.9655 46.3653C59.9171 47.7119 59.8105 49.4494 59.649 50.2412C59.4064 51.4309 59.0401 52.5539 58.5626 53.4886C57.9977 54.5942 57.2768 55.5848 56.4205 56.4395C55.5661 57.2925 54.5767 58.0104 53.4725 58.5733C52.5329 59.052 51.4029 59.4183 50.2065 59.66C49.4226 59.8183 47.698 59.923 46.3599 59.9705C45.809 59.9901 45.0965 60 44.7692 60L15.226 59.9954C14.8974 59.9954 14.1851 59.9853 13.6348 59.9656C12.2881 59.9172 10.5506 59.8106 9.7588 59.649C8.56907 59.4064 7.4461 59.0403 6.51145 58.5627C5.40575 57.9977 4.41521 57.277 3.56048 56.4207C2.7075 55.5661 1.98961 54.5767 1.42694 53.4725C0.948009 52.533 0.581565 51.403 0.340042 50.2065C0.181733 49.4227 0.0770489 47.6981 0.029484 46.36C0.00996499 45.8091 0 45.0965 0 44.7694L0.00472566 15.226C0.00472566 14.8975 0.0146906 14.1851 0.0344152 13.6347C0.0828018 12.2881 0.18954 10.5506 0.350932 9.75882C0.593584 8.56908 0.959823 7.44601 1.43732 6.51136C2.00235 5.40565 2.72301 4.41532 3.57938 3.56049C4.4339 2.7075 5.42321 1.98951 6.52737 1.42684C7.46706 0.948011 8.59711 0.581566 9.79353 0.340043C10.5774 0.181733 12.3019 0.077049 13.64 0.0294841C14.1909 0.00986227 14.9035 0 15.2307 0L44.7739 0.00472567C45.1025 0.00472567 45.8148 0.0147934 46.3652 0.0344152C47.7118 0.082802 49.4493 0.189541 50.2412 0.350932C51.4308 0.593483 52.5538 0.959722 53.4885 1.43732C54.5942 2.00235 55.5846 2.72312 56.4395 3.57939C57.2923 4.43381 58.0104 5.42332 58.5731 6.52738C59.0519 7.46707 59.4183 8.59702 59.6599 9.79354C59.8182 10.5773 59.9228 12.302 59.9704 13.6399C59.99 14.1909 60 14.9034 60 15.2307L59.9952 44.774Z" fill="white"/>
</mask>
<g mask="url(#mask0_8079_49159)">
<path d="M65.9993 66.0015C62.2142 86.6442 32.283 98.4527 -0.853906 92.3766C-33.9908 86.3005 -57.7852 64.6407 -54 43.998C-50.2149 23.3554 -20.2837 11.5468 12.8532 17.6229C45.9901 23.699 69.7844 45.3588 65.9993 66.0015Z" fill="url(#paint1_radial_8079_49159)"/>
<ellipse cx="15.8443" cy="57.2132" rx="37" ry="26.5" transform="rotate(10.3905 15.8443 57.2132)" fill="url(#paint2_radial_8079_49159)"/>
<ellipse cx="11" cy="-3" rx="40" ry="19" fill="url(#paint3_radial_8079_49159)"/>
<path fill-rule="evenodd" clip-rule="evenodd" d="M29.9999 8C24.0251 8 23.276 8.02525 20.9295 8.13227C18.5877 8.23917 16.9886 8.61107 15.5891 9.15496C14.1424 9.71716 12.9155 10.4694 11.6925 11.6924C10.4695 12.9154 9.71715 14.1424 9.15496 15.589C8.61118 16.9885 8.23928 18.5877 8.13238 20.9294C8.02536 23.2759 8 24.025 8 30C8 35.9748 8.02536 36.724 8.13238 39.0705C8.23928 41.4123 8.61118 43.0115 9.15496 44.4109C9.71715 45.8576 10.4695 47.0845 11.6925 48.3075C12.9155 49.5306 14.1424 50.2828 15.5891 50.845C16.9886 51.3889 18.5877 51.7608 20.9295 51.8676C23.276 51.9746 24.0251 52 29.9999 52C35.9748 52 36.724 51.9746 39.0705 51.8676C41.4123 51.7608 43.0114 51.3889 44.4108 50.845C45.8575 50.2828 47.0844 49.5306 48.3075 48.3075C49.5305 47.0845 50.2827 45.8576 50.845 44.4109C51.3888 43.0115 51.7607 41.4123 51.8676 39.0705C51.9746 36.724 52 35.9748 52 30C52 24.025 51.9746 23.2759 51.8676 20.9294C51.7607 18.5877 51.3888 16.9885 50.845 15.589C50.2827 14.1424 49.5305 12.9154 48.3075 11.6924C47.0844 10.4694 45.8575 9.71716 44.4108 9.15496C43.0114 8.61107 41.4123 8.23917 39.0705 8.13227C36.724 8.02525 35.9748 8 29.9999 8ZM29.9999 11.964C35.8742 11.964 36.5701 11.9863 38.8898 12.0922C41.0348 12.19 42.1996 12.5484 42.9749 12.8498C44.0018 13.2488 44.7347 13.7256 45.5046 14.4953C46.2743 15.2652 46.7511 15.9981 47.1503 17.025C47.4515 17.8002 47.8099 18.9651 47.9078 21.1101C48.0136 23.43 48.036 24.1257 48.036 30C48.036 35.8743 48.0136 36.57 47.9078 38.8899C47.8099 41.0348 47.4515 42.1997 47.1503 42.9749C46.7511 44.0018 46.2743 44.7347 45.5046 45.5046C44.7347 46.2743 44.0018 46.7512 42.9749 47.1502C42.1996 47.4515 41.0348 47.8098 38.8898 47.9078C36.5704 48.0136 35.8746 48.036 29.9999 48.036C24.1253 48.036 23.4296 48.0136 21.1102 47.9078C18.9652 47.8098 17.8002 47.4515 17.0251 47.1502C15.9981 46.7512 15.2653 46.2743 14.4954 45.5046C13.7256 44.7347 13.2489 44.0018 12.8497 42.9749C12.5485 42.1997 12.19 41.0348 12.0923 38.8899C11.9864 36.57 11.9639 35.8743 11.9639 30C11.9639 24.1257 11.9864 23.43 12.0923 21.1101C12.19 18.9651 12.5485 17.8002 12.8497 17.025C13.2489 15.9981 13.7256 15.2652 14.4954 14.4954C15.2653 13.7256 15.9981 13.2488 17.0251 12.8498C17.8002 12.5484 18.9652 12.19 21.1102 12.0922C23.4299 11.9863 24.1258 11.964 29.9999 11.964Z" fill="#FFFFFE"/>
<path fill-rule="evenodd" clip-rule="evenodd" d="M30.5 36.9649C26.3773 36.9649 23.0351 33.6229 23.0351 29.5001C23.0351 25.3773 26.3773 22.0351 30.5 22.0351C34.6228 22.0351 37.965 25.3773 37.965 29.5001C37.965 33.6229 34.6228 36.9649 30.5 36.9649ZM30.5 18C24.1488 18 19 23.1487 19 29.5001C19 35.8514 24.1488 41 30.5 41C36.8515 41 42 35.8514 42 29.5001C42 23.1487 36.8515 18 30.5 18Z" fill="#FFFFFE"/>
<path fill-rule="evenodd" clip-rule="evenodd" d="M44 18.5C44 19.8807 42.8807 21 41.5 21C40.1193 21 39 19.8807 39 18.5C39 17.1194 40.1193 16 41.5 16C42.8807 16 44 17.1194 44 18.5Z" fill="#FFFFFE"/>
</g>
<path d="M6.38936 74V66.454H7.43436V74H6.38936ZM9.13498 74V68.214H9.91598L10.004 69.083H10.081C10.235 68.8483 10.4073 68.6577 10.598 68.511C10.796 68.3643 11.0123 68.258 11.247 68.192C11.489 68.1187 11.7456 68.082 12.017 68.082C12.3836 68.082 12.7026 68.1443 12.974 68.269C13.2526 68.3937 13.469 68.5953 13.623 68.874C13.7843 69.1527 13.865 69.5303 13.865 70.007V74H12.897V70.139C12.897 69.897 12.864 69.699 12.798 69.545C12.7393 69.391 12.655 69.27 12.545 69.182C12.4423 69.094 12.314 69.0317 12.16 68.995C12.0133 68.9583 11.8483 68.94 11.665 68.94C11.3936 68.94 11.137 69.006 10.895 69.138C10.653 69.27 10.4586 69.4607 10.312 69.71C10.1726 69.9593 10.103 70.2563 10.103 70.601V74H9.13498ZM17.3572 74.132C16.9612 74.132 16.6129 74.0917 16.3122 74.011C16.0116 73.9303 15.7622 73.813 15.5642 73.659C15.3662 73.505 15.2159 73.3217 15.1132 73.109C15.0106 72.8963 14.9592 72.6543 14.9592 72.383C14.9592 72.3463 14.9592 72.3133 14.9592 72.284C14.9592 72.2473 14.9629 72.218 14.9702 72.196H15.9272C15.9199 72.2253 15.9162 72.251 15.9162 72.273C15.9162 72.295 15.9162 72.317 15.9162 72.339C15.9236 72.5957 15.9896 72.7973 16.1142 72.944C16.2462 73.0907 16.4259 73.1933 16.6532 73.252C16.8806 73.3107 17.1336 73.34 17.4122 73.34C17.6542 73.34 17.8779 73.3107 18.0832 73.252C18.2886 73.186 18.4499 73.0907 18.5672 72.966C18.6919 72.834 18.7542 72.669 18.7542 72.471C18.7542 72.229 18.6736 72.0457 18.5122 71.921C18.3582 71.789 18.1529 71.6863 17.8962 71.613C17.6396 71.5397 17.3719 71.4627 17.0932 71.382C16.8586 71.316 16.6239 71.2427 16.3892 71.162C16.1546 71.0813 15.9419 70.9823 15.7512 70.865C15.5679 70.7477 15.4176 70.5973 15.3002 70.414C15.1902 70.2233 15.1352 69.985 15.1352 69.699C15.1352 69.4423 15.1866 69.215 15.2892 69.017C15.3992 68.819 15.5532 68.6503 15.7512 68.511C15.9492 68.3717 16.1876 68.269 16.4662 68.203C16.7522 68.1297 17.0676 68.093 17.4122 68.093C17.7789 68.093 18.0979 68.1333 18.3692 68.214C18.6479 68.2947 18.8789 68.4083 19.0622 68.555C19.2456 68.7017 19.3812 68.8703 19.4692 69.061C19.5572 69.2443 19.6012 69.4423 19.6012 69.655C19.6012 69.699 19.6012 69.743 19.6012 69.787C19.6012 69.8237 19.5976 69.853 19.5902 69.875H18.6442V69.754C18.6442 69.6073 18.6039 69.468 18.5232 69.336C18.4499 69.1967 18.3179 69.0867 18.1272 69.006C17.9439 68.918 17.6872 68.874 17.3572 68.874C17.1446 68.874 16.9612 68.8923 16.8072 68.929C16.6532 68.9583 16.5249 69.0097 16.4222 69.083C16.3196 69.149 16.2426 69.2297 16.1912 69.325C16.1399 69.413 16.1142 69.5157 16.1142 69.633C16.1142 69.8237 16.1766 69.9703 16.3012 70.073C16.4259 70.1757 16.5909 70.26 16.7962 70.326C17.0089 70.392 17.2362 70.4653 17.4782 70.546C17.7349 70.6193 17.9952 70.6963 18.2592 70.777C18.5306 70.8503 18.7762 70.9457 18.9962 71.063C19.2236 71.1803 19.4032 71.3417 19.5352 71.547C19.6746 71.745 19.7442 72.009 19.7442 72.339C19.7442 72.647 19.6856 72.9147 19.5682 73.142C19.4509 73.3693 19.2822 73.5563 19.0622 73.703C18.8496 73.8497 18.5966 73.956 18.3032 74.022C18.0172 74.0953 17.7019 74.132 17.3572 74.132ZM22.2936 74.132C21.993 74.132 21.7583 74.077 21.5896 73.967C21.421 73.8497 21.3 73.6993 21.2266 73.516C21.1533 73.3253 21.1166 73.1237 21.1166 72.911V69.028H20.3686V68.214H21.1386L21.3146 66.597H22.0846V68.214H23.1736V69.028H22.0846V72.768C22.0846 72.9513 22.1176 73.0907 22.1836 73.186C22.2496 73.274 22.3743 73.318 22.5576 73.318H23.1736V73.956C23.1003 73.9927 23.0123 74.022 22.9096 74.044C22.807 74.066 22.7006 74.0843 22.5906 74.099C22.488 74.121 22.389 74.132 22.2936 74.132ZM25.6583 74.132C25.4456 74.132 25.2329 74.1063 25.0203 74.055C24.8076 74.0037 24.6096 73.9193 24.4263 73.802C24.2429 73.6847 24.0963 73.5233 23.9863 73.318C23.8763 73.1053 23.8213 72.8413 23.8213 72.526C23.8213 72.13 23.9166 71.8037 24.1073 71.547C24.2979 71.2903 24.5619 71.0923 24.8993 70.953C25.2439 70.8063 25.6509 70.7073 26.1203 70.656C26.5896 70.5973 27.0993 70.568 27.6493 70.568V69.908C27.6493 69.6953 27.6126 69.512 27.5393 69.358C27.4659 69.204 27.3339 69.0867 27.1433 69.006C26.9599 68.918 26.6959 68.874 26.3513 68.874C26.0213 68.874 25.7573 68.918 25.5593 69.006C25.3686 69.0867 25.2329 69.193 25.1523 69.325C25.0789 69.457 25.0423 69.6037 25.0423 69.765V69.93H24.1073C24.0999 69.8933 24.0963 69.8567 24.0963 69.82C24.0963 69.7833 24.0963 69.7393 24.0963 69.688C24.0963 69.336 24.1916 69.0427 24.3823 68.808C24.5803 68.566 24.8553 68.3863 25.2073 68.269C25.5593 68.1443 25.9626 68.082 26.4173 68.082C26.9013 68.082 27.3046 68.1517 27.6273 68.291C27.9573 68.4303 28.2029 68.6283 28.3643 68.885C28.5329 69.1417 28.6173 69.4497 28.6173 69.809V72.944C28.6173 73.0833 28.6503 73.1823 28.7163 73.241C28.7823 73.2923 28.8629 73.318 28.9583 73.318H29.3873V73.956C29.2846 74 29.1709 74.0367 29.0463 74.066C28.9216 74.1027 28.7786 74.121 28.6173 74.121C28.4266 74.121 28.2689 74.0807 28.1443 74C28.0196 73.9267 27.9243 73.824 27.8583 73.692C27.7923 73.5527 27.7483 73.3987 27.7263 73.23H27.6493C27.5173 73.4133 27.3486 73.5747 27.1433 73.714C26.9453 73.846 26.7216 73.9487 26.4723 74.022C26.2229 74.0953 25.9516 74.132 25.6583 74.132ZM25.9003 73.318C26.1349 73.318 26.3549 73.2813 26.5603 73.208C26.7729 73.1347 26.9599 73.032 27.1213 72.9C27.2826 72.7607 27.4109 72.5957 27.5063 72.405C27.6016 72.2143 27.6493 72.0053 27.6493 71.778V71.294C27.0553 71.294 26.5493 71.327 26.1313 71.393C25.7133 71.459 25.3906 71.5763 25.1633 71.745C24.9433 71.9137 24.8333 72.152 24.8333 72.46C24.8333 72.658 24.8773 72.8193 24.9653 72.944C25.0533 73.0687 25.1779 73.164 25.3393 73.23C25.5006 73.2887 25.6876 73.318 25.9003 73.318ZM31.1794 76.002C30.9007 76.002 30.6441 75.9433 30.4094 75.826C30.1747 75.716 29.9877 75.5547 29.8484 75.342C29.7091 75.1293 29.6394 74.8763 29.6394 74.583C29.6394 74.2603 29.7274 73.9927 29.9034 73.78C30.0867 73.5673 30.3031 73.4097 30.5524 73.307C30.3691 73.219 30.2261 73.098 30.1234 72.944C30.0207 72.7827 29.9694 72.6067 29.9694 72.416C29.9694 72.1593 30.0611 71.943 30.2444 71.767C30.4351 71.591 30.6661 71.4737 30.9374 71.415C30.6881 71.2537 30.4901 71.0483 30.3434 70.799C30.2041 70.5423 30.1344 70.26 30.1344 69.952C30.1344 69.5853 30.2187 69.2627 30.3874 68.984C30.5634 68.7053 30.8274 68.4853 31.1794 68.324C31.5387 68.1627 31.9751 68.082 32.4884 68.082C32.7231 68.082 32.9431 68.1003 33.1484 68.137C33.3537 68.1663 33.5371 68.2177 33.6984 68.291C33.9551 68.1737 34.1457 68.0233 34.2704 67.84C34.4024 67.6567 34.4831 67.4697 34.5124 67.279H35.4694C35.4694 67.499 35.4181 67.708 35.3154 67.906C35.2201 68.0967 35.0881 68.258 34.9194 68.39C34.7507 68.5147 34.5454 68.599 34.3034 68.643C34.4867 68.819 34.6224 69.017 34.7104 69.237C34.8057 69.457 34.8534 69.6953 34.8534 69.952C34.8534 70.3187 34.7654 70.645 34.5894 70.931C34.4207 71.2097 34.1641 71.4297 33.8194 71.591C33.4747 71.7523 33.0421 71.833 32.5214 71.833H31.6194C31.4214 71.833 31.2601 71.8733 31.1354 71.954C31.0107 72.0273 30.9484 72.1483 30.9484 72.317C30.9484 72.4637 31.0107 72.5847 31.1354 72.68C31.2601 72.768 31.4214 72.812 31.6194 72.812H33.9734C34.3987 72.812 34.7471 72.955 35.0184 73.241C35.2897 73.5197 35.4254 73.879 35.4254 74.319C35.4254 74.6343 35.3447 74.9167 35.1834 75.166C35.0294 75.4227 34.8094 75.6243 34.5234 75.771C34.2447 75.925 33.9184 76.002 33.5444 76.002H31.1794ZM31.4544 75.265H33.5334C33.7021 75.265 33.8561 75.2283 33.9954 75.155C34.1347 75.089 34.2447 74.9937 34.3254 74.869C34.4061 74.7443 34.4464 74.6087 34.4464 74.462C34.4464 74.2127 34.3731 74.0147 34.2264 73.868C34.0797 73.7213 33.8964 73.648 33.6764 73.648H31.4544C31.2197 73.648 31.0217 73.7287 30.8604 73.89C30.6991 74.044 30.6184 74.2347 30.6184 74.462C30.6184 74.704 30.6991 74.8983 30.8604 75.045C31.0217 75.1917 31.2197 75.265 31.4544 75.265ZM32.4994 71.107C32.9687 71.107 33.3171 71.0043 33.5444 70.799C33.7717 70.5937 33.8854 70.3113 33.8854 69.952C33.8854 69.6 33.7717 69.3213 33.5444 69.116C33.3171 68.9107 32.9687 68.808 32.4994 68.808C32.0301 68.808 31.6781 68.9107 31.4434 69.116C31.2161 69.3213 31.1024 69.6 31.1024 69.952C31.1024 70.1793 31.1537 70.381 31.2564 70.557C31.3591 70.733 31.5131 70.8687 31.7184 70.964C31.9237 71.0593 32.1841 71.107 32.4994 71.107ZM36.3127 74V68.214H37.0937L37.1817 69.171H37.2587C37.3174 68.9877 37.398 68.8153 37.5007 68.654C37.6034 68.4853 37.7427 68.3497 37.9187 68.247C38.0947 68.137 38.311 68.082 38.5677 68.082C38.6777 68.082 38.7767 68.093 38.8647 68.115C38.96 68.1297 39.0297 68.148 39.0737 68.17V69.061H38.7107C38.4614 69.061 38.245 69.105 38.0617 69.193C37.8857 69.2737 37.739 69.391 37.6217 69.545C37.5044 69.699 37.4164 69.8823 37.3577 70.095C37.3064 70.3077 37.2807 70.535 37.2807 70.777V74H36.3127ZM41.3096 74.132C41.097 74.132 40.8843 74.1063 40.6716 74.055C40.459 74.0037 40.261 73.9193 40.0776 73.802C39.8943 73.6847 39.7476 73.5233 39.6376 73.318C39.5276 73.1053 39.4726 72.8413 39.4726 72.526C39.4726 72.13 39.568 71.8037 39.7586 71.547C39.9493 71.2903 40.2133 71.0923 40.5506 70.953C40.8953 70.8063 41.3023 70.7073 41.7716 70.656C42.241 70.5973 42.7506 70.568 43.3006 70.568V69.908C43.3006 69.6953 43.264 69.512 43.1906 69.358C43.1173 69.204 42.9853 69.0867 42.7946 69.006C42.6113 68.918 42.3473 68.874 42.0026 68.874C41.6726 68.874 41.4086 68.918 41.2106 69.006C41.02 69.0867 40.8843 69.193 40.8036 69.325C40.7303 69.457 40.6936 69.6037 40.6936 69.765V69.93H39.7586C39.7513 69.8933 39.7476 69.8567 39.7476 69.82C39.7476 69.7833 39.7476 69.7393 39.7476 69.688C39.7476 69.336 39.843 69.0427 40.0336 68.808C40.2316 68.566 40.5066 68.3863 40.8586 68.269C41.2106 68.1443 41.614 68.082 42.0686 68.082C42.5526 68.082 42.956 68.1517 43.2786 68.291C43.6086 68.4303 43.8543 68.6283 44.0156 68.885C44.1843 69.1417 44.2686 69.4497 44.2686 69.809V72.944C44.2686 73.0833 44.3016 73.1823 44.3676 73.241C44.4336 73.2923 44.5143 73.318 44.6096 73.318H45.0386V73.956C44.936 74 44.8223 74.0367 44.6976 74.066C44.573 74.1027 44.43 74.121 44.2686 74.121C44.078 74.121 43.9203 74.0807 43.7956 74C43.671 73.9267 43.5756 73.824 43.5096 73.692C43.4436 73.5527 43.3996 73.3987 43.3776 73.23H43.3006C43.1686 73.4133 43 73.5747 42.7946 73.714C42.5966 73.846 42.373 73.9487 42.1236 74.022C41.8743 74.0953 41.603 74.132 41.3096 74.132ZM41.5516 73.318C41.7863 73.318 42.0063 73.2813 42.2116 73.208C42.4243 73.1347 42.6113 73.032 42.7726 72.9C42.934 72.7607 43.0623 72.5957 43.1576 72.405C43.253 72.2143 43.3006 72.0053 43.3006 71.778V71.294C42.7066 71.294 42.2006 71.327 41.7826 71.393C41.3646 71.459 41.042 71.5763 40.8146 71.745C40.5946 71.9137 40.4846 72.152 40.4846 72.46C40.4846 72.658 40.5286 72.8193 40.6166 72.944C40.7046 73.0687 40.8293 73.164 40.9906 73.23C41.152 73.2887 41.339 73.318 41.5516 73.318ZM45.8518 74V68.214H46.6328L46.7208 69.083H46.7978C46.9444 68.8483 47.1094 68.6577 47.2928 68.511C47.4761 68.3643 47.6778 68.258 47.8978 68.192C48.1178 68.1187 48.3561 68.082 48.6128 68.082C48.9868 68.082 49.3094 68.159 49.5808 68.313C49.8521 68.4597 50.0538 68.7163 50.1858 69.083H50.2518C50.3911 68.8483 50.5524 68.6613 50.7358 68.522C50.9191 68.3753 51.1244 68.2653 51.3518 68.192C51.5791 68.1187 51.8211 68.082 52.0778 68.082C52.4298 68.082 52.7378 68.1443 53.0018 68.269C53.2658 68.3863 53.4711 68.5843 53.6178 68.863C53.7718 69.1343 53.8488 69.501 53.8488 69.963V74H52.8808V70.117C52.8808 69.8823 52.8514 69.688 52.7928 69.534C52.7414 69.38 52.6644 69.2627 52.5618 69.182C52.4591 69.094 52.3381 69.0317 52.1988 68.995C52.0668 68.9583 51.9238 68.94 51.7698 68.94C51.5131 68.94 51.2748 69.006 51.0548 69.138C50.8421 69.27 50.6698 69.4607 50.5378 69.71C50.4058 69.9593 50.3398 70.2563 50.3398 70.601V74H49.3718V70.117C49.3718 69.8823 49.3424 69.688 49.2838 69.534C49.2251 69.38 49.1481 69.2627 49.0528 69.182C48.9574 69.094 48.8401 69.0317 48.7008 68.995C48.5688 68.9583 48.4294 68.94 48.2828 68.94C48.0188 68.94 47.7731 69.006 47.5458 69.138C47.3258 69.27 47.1498 69.4607 47.0178 69.71C46.8858 69.9593 46.8198 70.2563 46.8198 70.601V74H45.8518Z" fill="#333333"/>
<defs>
<linearGradient id="paint0_linear_8079_49159" x1="0" y1="0" x2="0" y2="60" gradientUnits="userSpaceOnUse">
<stop stop-color="#833CD5"/>
<stop offset="0.496188" stop-color="#DA2791"/>
<stop offset="1" stop-color="#DC2E79"/>
</linearGradient>
<radialGradient id="paint1_radial_8079_49159" cx="0" cy="0" r="1" gradientUnits="userSpaceOnUse" gradientTransform="translate(5.47153 60.1828) rotate(100.209) scale(29.3393 103.496)">
<stop stop-color="#FFDC8A"/>
<stop offset="0.0877658" stop-color="#FCCE82"/>
<stop offset="0.306982" stop-color="#FAAD66"/>
<stop offset="0.657879" stop-color="#F15B3A"/>
<stop offset="1" stop-color="#F36B38" stop-opacity="0.01"/>
</radialGradient>
<radialGradient id="paint2_radial_8079_49159" cx="0" cy="0" r="1" gradientUnits="userSpaceOnUse" gradientTransform="translate(18.2545 60.8123) rotate(90) scale(19.5734 35.2245)">
<stop stop-color="#FFDA9C"/>
<stop offset="0.398682" stop-color="#FAD474" stop-opacity="0.601318"/>
<stop offset="1" stop-color="#F36B38" stop-opacity="0.01"/>
</radialGradient>
<radialGradient id="paint3_radial_8079_49159" cx="0" cy="0" r="1" gradientUnits="userSpaceOnUse" gradientTransform="translate(11 0.930958) rotate(78.7804) scale(15.3626 76.3497)">
<stop stop-color="#4B6BD7"/>
<stop offset="1" stop-color="#8047C0" stop-opacity="0.01"/>
</radialGradient>
</defs>
</svg>
