<svg width="72" height="82" viewBox="0 0 72 82" fill="none" xmlns="http://www.w3.org/2000/svg">
<g filter="url(#filter0_d_8079_49213)">
<rect x="6" y="6" width="60" height="60" rx="13" fill="white"/>
<path d="M23.7568 27.2504H23.706C23.1687 27.284 22.6302 27.2063 22.1242 27.0221C21.6183 26.838 21.1559 26.5514 20.7658 26.1802C20.3758 25.8091 20.0666 25.3614 19.8576 24.8653C19.6486 24.3691 19.5442 23.8351 19.5511 23.2968C19.558 22.7584 19.6759 22.2273 19.8976 21.7366C20.1192 21.246 20.4398 20.8064 20.8392 20.4453C21.2386 20.0843 21.7082 19.8096 22.2187 19.6384C22.7291 19.4673 23.2694 19.4034 23.8058 19.4507C24.3431 19.4131 24.8824 19.487 25.3899 19.6676C25.8974 19.8483 26.3621 20.1318 26.7549 20.5004C27.1476 20.869 27.4601 21.3148 27.6725 21.8098C27.885 22.3048 27.9929 22.8383 27.9895 23.377C27.9861 23.9156 27.8715 24.4478 27.6528 24.9401C27.4342 25.4324 27.1162 25.8742 26.7188 26.2378C26.3214 26.6015 25.8532 26.8791 25.3435 27.0534C24.8338 27.2276 24.2936 27.2947 23.7568 27.2504ZM20.2813 32.5004H27.2813V53.5004H20.2813V32.5004ZM45.6563 32.5004C44.4768 32.5036 43.3132 32.7733 42.2526 33.2894C41.192 33.8055 40.2617 34.5546 39.5313 35.4807V32.5004H32.5313V53.5004H39.5313V43.8754C39.5313 42.9472 39.9 42.0569 40.5564 41.4006C41.2128 40.7442 42.103 40.3754 43.0313 40.3754C43.9595 40.3754 44.8498 40.7442 45.5061 41.4006C46.1625 42.0569 46.5313 42.9472 46.5313 43.8754V53.5004H53.5313V40.3754C53.5313 38.2868 52.7016 36.2838 51.2247 34.807C49.7479 33.3301 47.7448 32.5004 45.6563 32.5004Z" fill="#3892FF"/>
</g>
<path d="M16.552 80V72.454H17.597V79.087H21.348V80H16.552ZM22.2624 73.125V72.047H23.2304V73.125H22.2624ZM22.2624 80V74.214H23.2304V80H22.2624ZM24.7331 80V74.214H25.5141L25.6021 75.083H25.6791C25.8331 74.8483 26.0055 74.6577 26.1961 74.511C26.3941 74.3643 26.6105 74.258 26.8451 74.192C27.0871 74.1187 27.3438 74.082 27.6151 74.082C27.9818 74.082 28.3008 74.1443 28.5721 74.269C28.8508 74.3937 29.0671 74.5953 29.2211 74.874C29.3825 75.1527 29.4631 75.5303 29.4631 76.007V80H28.4951V76.139C28.4951 75.897 28.4621 75.699 28.3961 75.545C28.3375 75.391 28.2531 75.27 28.1431 75.182C28.0405 75.094 27.9121 75.0317 27.7581 74.995C27.6115 74.9583 27.4465 74.94 27.2631 74.94C26.9918 74.94 26.7351 75.006 26.4931 75.138C26.2511 75.27 26.0568 75.4607 25.9101 75.71C25.7708 75.9593 25.7011 76.2563 25.7011 76.601V80H24.7331ZM30.9314 80V72.047H31.8994V77.019L34.3524 74.214H35.4964L33.5164 76.458L35.6064 80H34.4954L32.8894 77.173L31.8994 78.174V80H30.9314ZM38.5265 80.132C37.9545 80.132 37.4705 80.0257 37.0745 79.813C36.6859 79.593 36.3889 79.2593 36.1835 78.812C35.9855 78.3647 35.8865 77.7963 35.8865 77.107C35.8865 76.4103 35.9855 75.842 36.1835 75.402C36.3889 74.9547 36.6895 74.6247 37.0855 74.412C37.4815 74.192 37.9765 74.082 38.5705 74.082C39.1132 74.082 39.5679 74.1883 39.9345 74.401C40.3012 74.6063 40.5762 74.918 40.7595 75.336C40.9502 75.7467 41.0455 76.2637 41.0455 76.887V77.349H36.8875C36.9022 77.811 36.9682 78.1923 37.0855 78.493C37.2102 78.7863 37.3935 79.0027 37.6355 79.142C37.8775 79.274 38.1819 79.34 38.5485 79.34C38.7979 79.34 39.0142 79.3107 39.1975 79.252C39.3882 79.186 39.5459 79.0943 39.6705 78.977C39.8025 78.8597 39.9015 78.7203 39.9675 78.559C40.0335 78.3977 40.0702 78.2217 40.0775 78.031H41.0235C41.0162 78.339 40.9575 78.625 40.8475 78.889C40.7375 79.1457 40.5762 79.3657 40.3635 79.549C40.1509 79.7323 39.8905 79.8753 39.5825 79.978C39.2745 80.0807 38.9225 80.132 38.5265 80.132ZM36.9095 76.623H40.0445C40.0445 76.3003 40.0079 76.029 39.9345 75.809C39.8612 75.589 39.7549 75.4093 39.6155 75.27C39.4835 75.1307 39.3259 75.0317 39.1425 74.973C38.9665 74.907 38.7649 74.874 38.5375 74.874C38.2002 74.874 37.9142 74.9363 37.6795 75.061C37.4449 75.1857 37.2652 75.3763 37.1405 75.633C37.0159 75.8897 36.9389 76.2197 36.9095 76.623ZM44.2119 80.132C43.7352 80.132 43.3246 80.0257 42.9799 79.813C42.6426 79.6003 42.3786 79.2703 42.1879 78.823C42.0046 78.3683 41.9129 77.7817 41.9129 77.063C41.9129 76.381 42.0082 75.82 42.1989 75.38C42.3896 74.94 42.6536 74.6137 42.9909 74.401C43.3282 74.1883 43.7206 74.082 44.1679 74.082C44.4246 74.082 44.6629 74.1113 44.8829 74.17C45.1029 74.2287 45.2972 74.3203 45.4659 74.445C45.6419 74.5697 45.7959 74.7347 45.9279 74.94H45.9939V72.047H46.9619V80H46.1809L46.0929 79.175H46.0159C45.8179 79.4977 45.5612 79.7397 45.2459 79.901C44.9306 80.055 44.5859 80.132 44.2119 80.132ZM44.4429 79.285C44.8096 79.285 45.1066 79.2043 45.3339 79.043C45.5612 78.8817 45.7262 78.647 45.8289 78.339C45.9389 78.031 45.9939 77.6497 45.9939 77.195V77.019C45.9939 76.623 45.9536 76.2893 45.8729 76.018C45.7922 75.7467 45.6822 75.5303 45.5429 75.369C45.4036 75.2077 45.2422 75.094 45.0589 75.028C44.8756 74.962 44.6812 74.929 44.4759 74.929C44.1166 74.929 43.8232 75.0023 43.5959 75.149C43.3686 75.2883 43.1999 75.512 43.0899 75.82C42.9799 76.1207 42.9249 76.513 42.9249 76.997V77.228C42.9249 77.7267 42.9836 78.13 43.1009 78.438C43.2182 78.7387 43.3869 78.955 43.6069 79.087C43.8342 79.219 44.1129 79.285 44.4429 79.285ZM48.4841 73.125V72.047H49.4521V73.125H48.4841ZM48.4841 80V74.214H49.4521V80H48.4841ZM50.9548 80V74.214H51.7358L51.8238 75.083H51.9008C52.0548 74.8483 52.2271 74.6577 52.4178 74.511C52.6158 74.3643 52.8321 74.258 53.0668 74.192C53.3088 74.1187 53.5655 74.082 53.8368 74.082C54.2035 74.082 54.5225 74.1443 54.7938 74.269C55.0725 74.3937 55.2888 74.5953 55.4428 74.874C55.6041 75.1527 55.6848 75.5303 55.6848 76.007V80H54.7168V76.139C54.7168 75.897 54.6838 75.699 54.6178 75.545C54.5591 75.391 54.4748 75.27 54.3648 75.182C54.2621 75.094 54.1338 75.0317 53.9798 74.995C53.8331 74.9583 53.6681 74.94 53.4848 74.94C53.2135 74.94 52.9568 75.006 52.7148 75.138C52.4728 75.27 52.2785 75.4607 52.1318 75.71C51.9925 75.9593 51.9228 76.2563 51.9228 76.601V80H50.9548Z" fill="#333333"/>
<defs>
<filter id="filter0_d_8079_49213" x="0" y="0" width="72" height="72" filterUnits="userSpaceOnUse" color-interpolation-filters="sRGB">
<feFlood flood-opacity="0" result="BackgroundImageFix"/>
<feColorMatrix in="SourceAlpha" type="matrix" values="0 0 0 0 0 0 0 0 0 0 0 0 0 0 0 0 0 0 127 0" result="hardAlpha"/>
<feOffset/>
<feGaussianBlur stdDeviation="3"/>
<feColorMatrix type="matrix" values="0 0 0 0 0 0 0 0 0 0 0 0 0 0 0 0 0 0 0.05 0"/>
<feBlend mode="normal" in2="BackgroundImageFix" result="effect1_dropShadow_8079_49213"/>
<feBlend mode="normal" in="SourceGraphic" in2="effect1_dropShadow_8079_49213" result="shape"/>
</filter>
</defs>
</svg>
