<svg width="60" height="76" viewBox="0 0 60 76" fill="none" xmlns="http://www.w3.org/2000/svg">
<path fill-rule="evenodd" clip-rule="evenodd" d="M59.9952 44.774C59.9952 45.1025 59.9851 45.8149 59.9655 46.3653C59.9171 47.7119 59.8105 49.4494 59.649 50.2412C59.4064 51.4309 59.0401 52.5539 58.5626 53.4886C57.9977 54.5942 57.2768 55.5848 56.4205 56.4395C55.5661 57.2925 54.5767 58.0104 53.4725 58.5733C52.5329 59.052 51.4029 59.4183 50.2065 59.66C49.4226 59.8183 47.698 59.923 46.3599 59.9705C45.809 59.9901 45.0965 60 44.7692 60L15.226 59.9954C14.8974 59.9954 14.1851 59.9853 13.6348 59.9656C12.2881 59.9172 10.5506 59.8106 9.7588 59.649C8.56907 59.4064 7.4461 59.0403 6.51145 58.5627C5.40575 57.9977 4.41521 57.277 3.56048 56.4207C2.7075 55.5661 1.98961 54.5767 1.42694 53.4725C0.948009 52.533 0.581565 51.403 0.340042 50.2065C0.181733 49.4227 0.0770489 47.6981 0.029484 46.36C0.00996499 45.8091 0 45.0965 0 44.7694L0.00472566 15.226C0.00472566 14.8975 0.0146906 14.1851 0.0344152 13.6347C0.0828018 12.2881 0.18954 10.5506 0.350932 9.75882C0.593584 8.56908 0.959823 7.44601 1.43732 6.51136C2.00235 5.40565 2.72301 4.41532 3.57938 3.56049C4.4339 2.7075 5.42321 1.98951 6.52737 1.42684C7.46706 0.948011 8.59711 0.581566 9.79353 0.340043C10.5774 0.181733 12.3019 0.077049 13.64 0.0294841C14.1909 0.00986227 14.9035 0 15.2307 0L44.7739 0.00472567C45.1025 0.00472567 45.8148 0.0147934 46.3652 0.0344152C47.7118 0.082802 49.4493 0.189541 50.2412 0.350932C51.4308 0.593483 52.5538 0.959722 53.4885 1.43732C54.5942 2.00235 55.5846 2.72312 56.4395 3.57939C57.2923 4.43381 58.0104 5.42332 58.5731 6.52738C59.0519 7.46707 59.4183 8.59702 59.6599 9.79354C59.8182 10.5773 59.9228 12.302 59.9704 13.6399C59.99 14.1909 60 14.9034 60 15.2307L59.9952 44.774Z" fill="#1E96C8"/>
<path d="M28.9907 35.4349L37.8644 42.0416C39.1286 42.7376 40.048 42.3896 40.3698 40.8583L44.8979 19.3277C45.3576 17.4484 44.1854 16.6131 42.9671 17.1699L16.396 27.5177C14.6428 28.2345 14.6038 29.2109 15.9272 29.6741L20.3355 31.0686C21.9617 31.5826 23.732 31.3508 25.171 30.4353L38.6919 21.8334C39.4274 21.3694 40.117 21.6246 39.5653 22.135L28.8192 31.874C27.8748 32.7298 27.494 33.956 28.3499 34.9004C28.4504 35.0114 28.8706 35.3455 28.9907 35.4349Z" fill="url(#paint0_linear_8079_49204)"/>
<path d="M10.0796 74V67.367H7.49464V66.454H13.7316V67.367H11.1246V74H10.0796ZM16.1447 74.132C15.5727 74.132 15.0887 74.0257 14.6927 73.813C14.304 73.593 14.007 73.2593 13.8017 72.812C13.6037 72.3647 13.5047 71.7963 13.5047 71.107C13.5047 70.4103 13.6037 69.842 13.8017 69.402C14.007 68.9547 14.3077 68.6247 14.7037 68.412C15.0997 68.192 15.5947 68.082 16.1887 68.082C16.7314 68.082 17.186 68.1883 17.5527 68.401C17.9194 68.6063 18.1944 68.918 18.3777 69.336C18.5684 69.7467 18.6637 70.2637 18.6637 70.887V71.349H14.5057C14.5204 71.811 14.5864 72.1923 14.7037 72.493C14.8284 72.7863 15.0117 73.0027 15.2537 73.142C15.4957 73.274 15.8 73.34 16.1667 73.34C16.416 73.34 16.6324 73.3107 16.8157 73.252C17.0064 73.186 17.164 73.0943 17.2887 72.977C17.4207 72.8597 17.5197 72.7203 17.5857 72.559C17.6517 72.3977 17.6884 72.2217 17.6957 72.031H18.6417C18.6344 72.339 18.5757 72.625 18.4657 72.889C18.3557 73.1457 18.1944 73.3657 17.9817 73.549C17.769 73.7323 17.5087 73.8753 17.2007 73.978C16.8927 74.0807 16.5407 74.132 16.1447 74.132ZM14.5277 70.623H17.6627C17.6627 70.3003 17.626 70.029 17.5527 69.809C17.4794 69.589 17.373 69.4093 17.2337 69.27C17.1017 69.1307 16.944 69.0317 16.7607 68.973C16.5847 68.907 16.383 68.874 16.1557 68.874C15.8184 68.874 15.5324 68.9363 15.2977 69.061C15.063 69.1857 14.8834 69.3763 14.7587 69.633C14.634 69.8897 14.557 70.2197 14.5277 70.623ZM19.8611 74V66.047H20.8291V74H19.8611ZM24.6418 74.132C24.0698 74.132 23.5858 74.0257 23.1898 73.813C22.8011 73.593 22.5041 73.2593 22.2988 72.812C22.1008 72.3647 22.0018 71.7963 22.0018 71.107C22.0018 70.4103 22.1008 69.842 22.2988 69.402C22.5041 68.9547 22.8048 68.6247 23.2008 68.412C23.5968 68.192 24.0918 68.082 24.6858 68.082C25.2284 68.082 25.6831 68.1883 26.0498 68.401C26.4164 68.6063 26.6914 68.918 26.8748 69.336C27.0654 69.7467 27.1608 70.2637 27.1608 70.887V71.349H23.0028C23.0174 71.811 23.0834 72.1923 23.2008 72.493C23.3254 72.7863 23.5088 73.0027 23.7508 73.142C23.9928 73.274 24.2971 73.34 24.6638 73.34C24.9131 73.34 25.1294 73.3107 25.3128 73.252C25.5034 73.186 25.6611 73.0943 25.7858 72.977C25.9178 72.8597 26.0168 72.7203 26.0828 72.559C26.1488 72.3977 26.1854 72.2217 26.1928 72.031H27.1388C27.1314 72.339 27.0728 72.625 26.9628 72.889C26.8528 73.1457 26.6914 73.3657 26.4788 73.549C26.2661 73.7323 26.0058 73.8753 25.6978 73.978C25.3898 74.0807 25.0378 74.132 24.6418 74.132ZM23.0248 70.623H26.1598C26.1598 70.3003 26.1231 70.029 26.0498 69.809C25.9764 69.589 25.8701 69.4093 25.7308 69.27C25.5988 69.1307 25.4411 69.0317 25.2578 68.973C25.0818 68.907 24.8801 68.874 24.6528 68.874C24.3154 68.874 24.0294 68.9363 23.7948 69.061C23.5601 69.1857 23.3804 69.3763 23.2558 69.633C23.1311 69.8897 23.0541 70.2197 23.0248 70.623ZM29.3371 76.002C29.0585 76.002 28.8018 75.9433 28.5671 75.826C28.3325 75.716 28.1455 75.5547 28.0061 75.342C27.8668 75.1293 27.7971 74.8763 27.7971 74.583C27.7971 74.2603 27.8851 73.9927 28.0611 73.78C28.2445 73.5673 28.4608 73.4097 28.7101 73.307C28.5268 73.219 28.3838 73.098 28.2811 72.944C28.1785 72.7827 28.1271 72.6067 28.1271 72.416C28.1271 72.1593 28.2188 71.943 28.4021 71.767C28.5928 71.591 28.8238 71.4737 29.0951 71.415C28.8458 71.2537 28.6478 71.0483 28.5011 70.799C28.3618 70.5423 28.2921 70.26 28.2921 69.952C28.2921 69.5853 28.3765 69.2627 28.5451 68.984C28.7211 68.7053 28.9851 68.4853 29.3371 68.324C29.6965 68.1627 30.1328 68.082 30.6461 68.082C30.8808 68.082 31.1008 68.1003 31.3061 68.137C31.5115 68.1663 31.6948 68.2177 31.8561 68.291C32.1128 68.1737 32.3035 68.0233 32.4281 67.84C32.5601 67.6567 32.6408 67.4697 32.6701 67.279H33.6271C33.6271 67.499 33.5758 67.708 33.4731 67.906C33.3778 68.0967 33.2458 68.258 33.0771 68.39C32.9085 68.5147 32.7031 68.599 32.4611 68.643C32.6445 68.819 32.7801 69.017 32.8681 69.237C32.9635 69.457 33.0111 69.6953 33.0111 69.952C33.0111 70.3187 32.9231 70.645 32.7471 70.931C32.5785 71.2097 32.3218 71.4297 31.9771 71.591C31.6325 71.7523 31.1998 71.833 30.6791 71.833H29.7771C29.5791 71.833 29.4178 71.8733 29.2931 71.954C29.1685 72.0273 29.1061 72.1483 29.1061 72.317C29.1061 72.4637 29.1685 72.5847 29.2931 72.68C29.4178 72.768 29.5791 72.812 29.7771 72.812H32.1311C32.5565 72.812 32.9048 72.955 33.1761 73.241C33.4475 73.5197 33.5831 73.879 33.5831 74.319C33.5831 74.6343 33.5025 74.9167 33.3411 75.166C33.1871 75.4227 32.9671 75.6243 32.6811 75.771C32.4025 75.925 32.0761 76.002 31.7021 76.002H29.3371ZM29.6121 75.265H31.6911C31.8598 75.265 32.0138 75.2283 32.1531 75.155C32.2925 75.089 32.4025 74.9937 32.4831 74.869C32.5638 74.7443 32.6041 74.6087 32.6041 74.462C32.6041 74.2127 32.5308 74.0147 32.3841 73.868C32.2375 73.7213 32.0541 73.648 31.8341 73.648H29.6121C29.3775 73.648 29.1795 73.7287 29.0181 73.89C28.8568 74.044 28.7761 74.2347 28.7761 74.462C28.7761 74.704 28.8568 74.8983 29.0181 75.045C29.1795 75.1917 29.3775 75.265 29.6121 75.265ZM30.6571 71.107C31.1265 71.107 31.4748 71.0043 31.7021 70.799C31.9295 70.5937 32.0431 70.3113 32.0431 69.952C32.0431 69.6 31.9295 69.3213 31.7021 69.116C31.4748 68.9107 31.1265 68.808 30.6571 68.808C30.1878 68.808 29.8358 68.9107 29.6011 69.116C29.3738 69.3213 29.2601 69.6 29.2601 69.952C29.2601 70.1793 29.3115 70.381 29.4141 70.557C29.5168 70.733 29.6708 70.8687 29.8761 70.964C30.0815 71.0593 30.3418 71.107 30.6571 71.107ZM34.4704 74V68.214H35.2514L35.3394 69.171H35.4164C35.4751 68.9877 35.5558 68.8153 35.6584 68.654C35.7611 68.4853 35.9004 68.3497 36.0764 68.247C36.2524 68.137 36.4688 68.082 36.7254 68.082C36.8354 68.082 36.9344 68.093 37.0224 68.115C37.1178 68.1297 37.1874 68.148 37.2314 68.17V69.061H36.8684C36.6191 69.061 36.4028 69.105 36.2194 69.193C36.0434 69.2737 35.8968 69.391 35.7794 69.545C35.6621 69.699 35.5741 69.8823 35.5154 70.095C35.4641 70.3077 35.4384 70.535 35.4384 70.777V74H34.4704ZM39.4673 74.132C39.2547 74.132 39.042 74.1063 38.8293 74.055C38.6167 74.0037 38.4187 73.9193 38.2353 73.802C38.052 73.6847 37.9053 73.5233 37.7953 73.318C37.6853 73.1053 37.6303 72.8413 37.6303 72.526C37.6303 72.13 37.7257 71.8037 37.9163 71.547C38.107 71.2903 38.371 71.0923 38.7083 70.953C39.053 70.8063 39.46 70.7073 39.9293 70.656C40.3987 70.5973 40.9083 70.568 41.4583 70.568V69.908C41.4583 69.6953 41.4217 69.512 41.3483 69.358C41.275 69.204 41.143 69.0867 40.9523 69.006C40.769 68.918 40.505 68.874 40.1603 68.874C39.8303 68.874 39.5663 68.918 39.3683 69.006C39.1777 69.0867 39.042 69.193 38.9613 69.325C38.888 69.457 38.8513 69.6037 38.8513 69.765V69.93H37.9163C37.909 69.8933 37.9053 69.8567 37.9053 69.82C37.9053 69.7833 37.9053 69.7393 37.9053 69.688C37.9053 69.336 38.0007 69.0427 38.1913 68.808C38.3893 68.566 38.6643 68.3863 39.0163 68.269C39.3683 68.1443 39.7717 68.082 40.2263 68.082C40.7103 68.082 41.1137 68.1517 41.4363 68.291C41.7663 68.4303 42.012 68.6283 42.1733 68.885C42.342 69.1417 42.4263 69.4497 42.4263 69.809V72.944C42.4263 73.0833 42.4593 73.1823 42.5253 73.241C42.5913 73.2923 42.672 73.318 42.7673 73.318H43.1963V73.956C43.0937 74 42.98 74.0367 42.8553 74.066C42.7307 74.1027 42.5877 74.121 42.4263 74.121C42.2357 74.121 42.078 74.0807 41.9533 74C41.8287 73.9267 41.7333 73.824 41.6673 73.692C41.6013 73.5527 41.5573 73.3987 41.5353 73.23H41.4583C41.3263 73.4133 41.1577 73.5747 40.9523 73.714C40.7543 73.846 40.5307 73.9487 40.2813 74.022C40.032 74.0953 39.7607 74.132 39.4673 74.132ZM39.7093 73.318C39.944 73.318 40.164 73.2813 40.3693 73.208C40.582 73.1347 40.769 73.032 40.9303 72.9C41.0917 72.7607 41.22 72.5957 41.3153 72.405C41.4107 72.2143 41.4583 72.0053 41.4583 71.778V71.294C40.8643 71.294 40.3583 71.327 39.9403 71.393C39.5223 71.459 39.1997 71.5763 38.9723 71.745C38.7523 71.9137 38.6423 72.152 38.6423 72.46C38.6423 72.658 38.6863 72.8193 38.7743 72.944C38.8623 73.0687 38.987 73.164 39.1483 73.23C39.3097 73.2887 39.4967 73.318 39.7093 73.318ZM44.0095 74V68.214H44.7905L44.8785 69.083H44.9555C45.1022 68.8483 45.2672 68.6577 45.4505 68.511C45.6338 68.3643 45.8355 68.258 46.0555 68.192C46.2755 68.1187 46.5138 68.082 46.7705 68.082C47.1445 68.082 47.4672 68.159 47.7385 68.313C48.0098 68.4597 48.2115 68.7163 48.3435 69.083H48.4095C48.5488 68.8483 48.7102 68.6613 48.8935 68.522C49.0768 68.3753 49.2822 68.2653 49.5095 68.192C49.7368 68.1187 49.9788 68.082 50.2355 68.082C50.5875 68.082 50.8955 68.1443 51.1595 68.269C51.4235 68.3863 51.6288 68.5843 51.7755 68.863C51.9295 69.1343 52.0065 69.501 52.0065 69.963V74H51.0385V70.117C51.0385 69.8823 51.0092 69.688 50.9505 69.534C50.8992 69.38 50.8222 69.2627 50.7195 69.182C50.6168 69.094 50.4958 69.0317 50.3565 68.995C50.2245 68.9583 50.0815 68.94 49.9275 68.94C49.6708 68.94 49.4325 69.006 49.2125 69.138C48.9998 69.27 48.8275 69.4607 48.6955 69.71C48.5635 69.9593 48.4975 70.2563 48.4975 70.601V74H47.5295V70.117C47.5295 69.8823 47.5002 69.688 47.4415 69.534C47.3828 69.38 47.3058 69.2627 47.2105 69.182C47.1152 69.094 46.9978 69.0317 46.8585 68.995C46.7265 68.9583 46.5872 68.94 46.4405 68.94C46.1765 68.94 45.9308 69.006 45.7035 69.138C45.4835 69.27 45.3075 69.4607 45.1755 69.71C45.0435 69.9593 44.9775 70.2563 44.9775 70.601V74H44.0095Z" fill="#333333"/>
<defs>
<linearGradient id="paint0_linear_8079_49204" x1="27.9192" y1="31.4" x2="32.3016" y2="41.2852" gradientUnits="userSpaceOnUse">
<stop stop-color="#EFF7FC"/>
<stop offset="1" stop-color="white"/>
</linearGradient>
</defs>
</svg>
