<svg width="40" height="40" viewBox="0 0 40 40" fill="none" xmlns="http://www.w3.org/2000/svg">
<rect width="40" height="40" rx="5" fill="#FAEBEB"/>
<mask id="mask0_8079_49136" style="mask-type:luminance" maskUnits="userSpaceOnUse" x="10" y="11" width="20" height="20">
<path fill-rule="evenodd" clip-rule="evenodd" d="M10 11H29.499V30.499H10V11Z" fill="white"/>
</mask>
<g mask="url(#mask0_8079_49136)">
<path fill-rule="evenodd" clip-rule="evenodd" d="M18.8049 22.8175L22.4619 28.7505C22.6219 29.0105 22.8719 29.0075 22.9729 28.9935C23.0739 28.9795 23.3169 28.9175 23.4049 28.6225L27.9779 13.1775C28.0579 12.9045 27.9109 12.7185 27.8449 12.6525C27.7809 12.5865 27.5979 12.4455 27.3329 12.5205L11.8769 17.0465C11.5839 17.1325 11.5199 17.3785 11.5059 17.4795C11.4919 17.5825 11.4879 17.8375 11.7469 18.0005L17.7479 21.7535L23.0499 16.3955C23.3409 16.1015 23.8159 16.0985 24.1109 16.3895C24.4059 16.6805 24.4079 17.1565 24.1169 17.4505L18.8049 22.8175ZM22.8949 30.4995C22.1989 30.4995 21.5609 30.1455 21.1849 29.5375L17.3079 23.2465L10.9519 19.2715C10.2669 18.8425 9.90894 18.0785 10.0199 17.2755C10.1299 16.4725 10.6809 15.8345 11.4549 15.6075L26.9109 11.0815C27.6219 10.8735 28.3839 11.0705 28.9079 11.5925C29.4319 12.1195 29.6269 12.8895 29.4149 13.6035L24.8419 29.0475C24.6129 29.8245 23.9729 30.3735 23.1719 30.4805C23.0779 30.4925 22.9869 30.4995 22.8949 30.4995Z" fill="#FF6F6F"/>
</g>
</svg>
