<svg width="60" height="77" viewBox="0 0 60 77" fill="none" xmlns="http://www.w3.org/2000/svg">
<path fill-rule="evenodd" clip-rule="evenodd" d="M59.9952 44.774C59.9952 45.1025 59.9851 45.8149 59.9655 46.3653C59.9171 47.7119 59.8105 49.4494 59.649 50.2412C59.4064 51.4309 59.0401 52.5539 58.5626 53.4886C57.9977 54.5942 57.2768 55.5848 56.4205 56.4395C55.5661 57.2925 54.5767 58.0104 53.4725 58.5733C52.5329 59.052 51.4029 59.4183 50.2065 59.66C49.4226 59.8183 47.698 59.923 46.3599 59.9705C45.809 59.9901 45.0965 60 44.7692 60L15.226 59.9954C14.8974 59.9954 14.1851 59.9853 13.6348 59.9656C12.2881 59.9172 10.5506 59.8106 9.7588 59.649C8.56907 59.4064 7.4461 59.0403 6.51145 58.5627C5.40575 57.9977 4.41521 57.277 3.56048 56.4207C2.7075 55.5661 1.98961 54.5767 1.42694 53.4725C0.948009 52.533 0.581565 51.403 0.340042 50.2065C0.181733 49.4227 0.0770489 47.6981 0.029484 46.36C0.00996499 45.8091 0 45.0965 0 44.7694L0.00472566 15.226C0.00472566 14.8975 0.0146906 14.1851 0.0344152 13.6347C0.0828018 12.2881 0.18954 10.5506 0.350932 9.75882C0.593584 8.56908 0.959823 7.44601 1.43732 6.51136C2.00235 5.40565 2.72301 4.41532 3.57938 3.56049C4.4339 2.7075 5.42321 1.98951 6.52737 1.42684C7.46706 0.948011 8.59711 0.581566 9.79353 0.340043C10.5774 0.181733 12.3019 0.077049 13.64 0.0294841C14.1909 0.00986227 14.9035 0 15.2307 0L44.7739 0.00472567C45.1025 0.00472567 45.8148 0.0147934 46.3652 0.0344152C47.7118 0.082802 49.4493 0.189541 50.2412 0.350932C51.4308 0.593483 52.5538 0.959722 53.4885 1.43732C54.5942 2.00235 55.5846 2.72312 56.4395 3.57939C57.2923 4.43381 58.0104 5.42332 58.5731 6.52738C59.0519 7.46707 59.4183 8.59702 59.6599 9.79354C59.8182 10.5773 59.9228 12.302 59.9704 13.6399C59.99 14.1909 60 14.9034 60 15.2307L59.9952 44.774Z" fill="url(#paint0_linear_8079_49175)"/>
<path fill-rule="evenodd" clip-rule="evenodd" d="M9.40084 29.4913C9.40548 17.857 18.8689 8.40039 30.5094 8.40039C36.1384 8.40258 41.4478 10.6043 45.4266 14.5862C49.4054 18.568 51.6029 23.879 51.6008 29.5083C51.5961 41.1419 42.1342 50.6004 30.5009 50.6004L29.9818 50.5938C26.6975 50.5123 23.4879 49.6706 20.6064 48.1393L20.4268 48.0404L9.20508 50.984L12.2078 40.0174L12.1409 39.9028C10.4221 36.8741 9.48303 33.4663 9.406 29.9688L9.40084 29.4913ZM42.8801 17.1308C39.576 13.8242 35.1822 12.0022 30.508 12.0004C20.8552 12.0004 13.0047 19.8474 13.0008 29.4928C12.9994 32.7981 13.9247 36.0173 15.6764 38.8026L16.0925 39.4644L14.3246 45.9197L20.948 44.1829L21.587 44.562C24.2738 46.156 27.3538 46.9991 30.4939 47.0004L30.8291 46.9974C40.3239 46.8218 47.9969 39.0432 48.0008 29.5068C48.0026 24.8326 46.1841 20.4373 42.8801 17.1308Z" fill="white"/>
<path fill-rule="evenodd" clip-rule="evenodd" d="M40.8839 33.9502C40.3425 33.6717 37.6813 32.3253 37.1852 32.1395C36.6889 31.9538 36.3282 31.861 35.9673 32.4182C35.6065 32.9752 34.5691 34.2289 34.2534 34.6003C33.9377 34.9718 33.6219 35.0182 33.0806 34.7395C32.5393 34.461 30.7953 33.8734 28.7278 31.9772C27.1187 30.5016 26.0324 28.6789 25.7166 28.1217C25.4009 27.5646 25.6831 27.2633 25.954 26.9859C26.1974 26.7365 26.4952 26.3358 26.7658 26.0108C27.0365 25.6859 27.1267 25.4536 27.3071 25.0823C27.4876 24.7108 27.3974 24.3857 27.262 24.1073C27.1267 23.8287 26.0442 21.0893 25.5931 19.975C25.1538 18.8897 24.7075 19.0365 24.3753 19.0196C24.0599 19.0034 23.6987 19 23.3379 19C22.977 19 22.3907 19.1392 21.8944 19.6964C21.3983 20.2536 20 21.6 20 24.3394C20 27.0787 21.9396 29.7251 22.2102 30.0967C22.4809 30.4681 26.0271 36.0896 31.4568 38.5004C32.7483 39.0738 33.7566 39.4162 34.5426 39.6728C35.8393 40.0963 37.0193 40.0365 37.9519 39.8933C38.9919 39.7336 41.1544 38.5469 41.6055 37.2468C42.0565 35.9469 42.0565 34.8325 41.9212 34.6003C41.7858 34.3683 41.4251 34.2289 40.8839 33.9502Z" fill="#FFFFFE"/>
<path d="M6.398 74L4.297 66.454H5.419L6.761 71.547C6.783 71.6277 6.80866 71.745 6.838 71.899C6.87466 72.0457 6.91133 72.1997 6.948 72.361C6.98466 72.5223 7.014 72.6653 7.036 72.79H7.113C7.135 72.6947 7.15333 72.5883 7.168 72.471C7.19 72.3537 7.212 72.2363 7.234 72.119C7.26333 72.0017 7.289 71.8917 7.311 71.789C7.333 71.6863 7.34766 71.6057 7.355 71.547L8.609 66.454H9.962L11.216 71.547C11.238 71.6277 11.2637 71.745 11.293 71.899C11.3297 72.0457 11.3627 72.1997 11.392 72.361C11.4287 72.5223 11.458 72.6653 11.48 72.79H11.557C11.579 72.6947 11.601 72.592 11.623 72.482C11.645 72.3647 11.6707 72.2473 11.7 72.13C11.7293 72.0127 11.755 71.9027 11.777 71.8C11.8063 71.6973 11.8283 71.613 11.843 71.547L13.196 66.454H14.186L12.085 74H10.831L9.522 68.874C9.5 68.764 9.47433 68.6357 9.445 68.489C9.41566 68.335 9.38633 68.1773 9.357 68.016C9.32766 67.8547 9.302 67.7153 9.28 67.598H9.214C9.19933 67.7227 9.17733 67.8657 9.148 68.027C9.11866 68.1883 9.08566 68.346 9.049 68.5C9.01966 68.654 8.994 68.7787 8.972 68.874L7.696 74H6.398ZM15.1521 74V66.047H16.1201V68.94H16.1971C16.3438 68.742 16.5088 68.5807 16.6921 68.456C16.8754 68.3313 17.0771 68.2397 17.2971 68.181C17.5244 68.115 17.7701 68.082 18.0341 68.082C18.4008 68.082 18.7198 68.1443 18.9911 68.269C19.2698 68.3937 19.4861 68.5953 19.6401 68.874C19.8014 69.1527 19.8821 69.5303 19.8821 70.007V74H18.9141V70.139C18.9141 69.897 18.8811 69.699 18.8151 69.545C18.7564 69.391 18.6721 69.27 18.5621 69.182C18.4594 69.094 18.3311 69.0317 18.1771 68.995C18.0304 68.9583 17.8654 68.94 17.6821 68.94C17.4108 68.94 17.1541 69.006 16.9121 69.138C16.6701 69.2627 16.4758 69.4497 16.3291 69.699C16.1898 69.941 16.1201 70.2417 16.1201 70.601V74H15.1521ZM22.8683 74.132C22.6557 74.132 22.443 74.1063 22.2303 74.055C22.0177 74.0037 21.8197 73.9193 21.6363 73.802C21.453 73.6847 21.3063 73.5233 21.1963 73.318C21.0863 73.1053 21.0313 72.8413 21.0313 72.526C21.0313 72.13 21.1267 71.8037 21.3173 71.547C21.508 71.2903 21.772 71.0923 22.1093 70.953C22.454 70.8063 22.861 70.7073 23.3303 70.656C23.7997 70.5973 24.3093 70.568 24.8593 70.568V69.908C24.8593 69.6953 24.8227 69.512 24.7493 69.358C24.676 69.204 24.544 69.0867 24.3533 69.006C24.17 68.918 23.906 68.874 23.5613 68.874C23.2313 68.874 22.9673 68.918 22.7693 69.006C22.5787 69.0867 22.443 69.193 22.3623 69.325C22.289 69.457 22.2523 69.6037 22.2523 69.765V69.93H21.3173C21.31 69.8933 21.3063 69.8567 21.3063 69.82C21.3063 69.7833 21.3063 69.7393 21.3063 69.688C21.3063 69.336 21.4017 69.0427 21.5923 68.808C21.7903 68.566 22.0653 68.3863 22.4173 68.269C22.7693 68.1443 23.1727 68.082 23.6273 68.082C24.1113 68.082 24.5147 68.1517 24.8373 68.291C25.1673 68.4303 25.413 68.6283 25.5743 68.885C25.743 69.1417 25.8273 69.4497 25.8273 69.809V72.944C25.8273 73.0833 25.8603 73.1823 25.9263 73.241C25.9923 73.2923 26.073 73.318 26.1683 73.318H26.5973V73.956C26.4947 74 26.381 74.0367 26.2563 74.066C26.1317 74.1027 25.9887 74.121 25.8273 74.121C25.6367 74.121 25.479 74.0807 25.3543 74C25.2297 73.9267 25.1343 73.824 25.0683 73.692C25.0023 73.5527 24.9583 73.3987 24.9363 73.23H24.8593C24.7273 73.4133 24.5587 73.5747 24.3533 73.714C24.1553 73.846 23.9317 73.9487 23.6823 74.022C23.433 74.0953 23.1617 74.132 22.8683 74.132ZM23.1103 73.318C23.345 73.318 23.565 73.2813 23.7703 73.208C23.983 73.1347 24.17 73.032 24.3313 72.9C24.4927 72.7607 24.621 72.5957 24.7163 72.405C24.8117 72.2143 24.8593 72.0053 24.8593 71.778V71.294C24.2653 71.294 23.7593 71.327 23.3413 71.393C22.9233 71.459 22.6007 71.5763 22.3733 71.745C22.1533 71.9137 22.0433 72.152 22.0433 72.46C22.0433 72.658 22.0873 72.8193 22.1753 72.944C22.2633 73.0687 22.388 73.164 22.5493 73.23C22.7107 73.2887 22.8977 73.318 23.1103 73.318ZM28.8295 74.132C28.5288 74.132 28.2942 74.077 28.1255 73.967C27.9568 73.8497 27.8358 73.6993 27.7625 73.516C27.6892 73.3253 27.6525 73.1237 27.6525 72.911V69.028H26.9045V68.214H27.6745L27.8505 66.597H28.6205V68.214H29.7095V69.028H28.6205V72.768C28.6205 72.9513 28.6535 73.0907 28.7195 73.186C28.7855 73.274 28.9102 73.318 29.0935 73.318H29.7095V73.956C29.6362 73.9927 29.5482 74.022 29.4455 74.044C29.3428 74.066 29.2365 74.0843 29.1265 74.099C29.0238 74.121 28.9248 74.132 28.8295 74.132ZM32.8321 74.132C32.4361 74.132 32.0878 74.0917 31.7871 74.011C31.4864 73.9303 31.2371 73.813 31.0391 73.659C30.8411 73.505 30.6908 73.3217 30.5881 73.109C30.4854 72.8963 30.4341 72.6543 30.4341 72.383C30.4341 72.3463 30.4341 72.3133 30.4341 72.284C30.4341 72.2473 30.4378 72.218 30.4451 72.196H31.4021C31.3948 72.2253 31.3911 72.251 31.3911 72.273C31.3911 72.295 31.3911 72.317 31.3911 72.339C31.3984 72.5957 31.4644 72.7973 31.5891 72.944C31.7211 73.0907 31.9008 73.1933 32.1281 73.252C32.3554 73.3107 32.6084 73.34 32.8871 73.34C33.1291 73.34 33.3528 73.3107 33.5581 73.252C33.7634 73.186 33.9248 73.0907 34.0421 72.966C34.1668 72.834 34.2291 72.669 34.2291 72.471C34.2291 72.229 34.1484 72.0457 33.9871 71.921C33.8331 71.789 33.6278 71.6863 33.3711 71.613C33.1144 71.5397 32.8468 71.4627 32.5681 71.382C32.3334 71.316 32.0988 71.2427 31.8641 71.162C31.6294 71.0813 31.4168 70.9823 31.2261 70.865C31.0428 70.7477 30.8924 70.5973 30.7751 70.414C30.6651 70.2233 30.6101 69.985 30.6101 69.699C30.6101 69.4423 30.6614 69.215 30.7641 69.017C30.8741 68.819 31.0281 68.6503 31.2261 68.511C31.4241 68.3717 31.6624 68.269 31.9411 68.203C32.2271 68.1297 32.5424 68.093 32.8871 68.093C33.2538 68.093 33.5728 68.1333 33.8441 68.214C34.1228 68.2947 34.3538 68.4083 34.5371 68.555C34.7204 68.7017 34.8561 68.8703 34.9441 69.061C35.0321 69.2443 35.0761 69.4423 35.0761 69.655C35.0761 69.699 35.0761 69.743 35.0761 69.787C35.0761 69.8237 35.0724 69.853 35.0651 69.875H34.1191V69.754C34.1191 69.6073 34.0788 69.468 33.9981 69.336C33.9248 69.1967 33.7928 69.0867 33.6021 69.006C33.4188 68.918 33.1621 68.874 32.8321 68.874C32.6194 68.874 32.4361 68.8923 32.2821 68.929C32.1281 68.9583 31.9998 69.0097 31.8971 69.083C31.7944 69.149 31.7174 69.2297 31.6661 69.325C31.6148 69.413 31.5891 69.5157 31.5891 69.633C31.5891 69.8237 31.6514 69.9703 31.7761 70.073C31.9008 70.1757 32.0658 70.26 32.2711 70.326C32.4838 70.392 32.7111 70.4653 32.9531 70.546C33.2098 70.6193 33.4701 70.6963 33.7341 70.777C34.0054 70.8503 34.2511 70.9457 34.4711 71.063C34.6984 71.1803 34.8781 71.3417 35.0101 71.547C35.1494 71.745 35.2191 72.009 35.2191 72.339C35.2191 72.647 35.1604 72.9147 35.0431 73.142C34.9258 73.3693 34.7571 73.5563 34.5371 73.703C34.3244 73.8497 34.0714 73.956 33.7781 74.022C33.4921 74.0953 33.1768 74.132 32.8321 74.132ZM35.7995 74L38.7805 66.454H40.1555L43.1475 74H42.0145L41.2775 72.13H37.6035L36.8775 74H35.7995ZM37.9445 71.239H40.9255L40.0125 68.874C39.9905 68.808 39.9575 68.7163 39.9135 68.599C39.8695 68.4817 39.8219 68.3533 39.7705 68.214C39.7192 68.0673 39.6679 67.9207 39.6165 67.774C39.5652 67.62 39.5175 67.4807 39.4735 67.356H39.4075C39.3562 67.5027 39.2975 67.6713 39.2315 67.862C39.1655 68.0527 39.0995 68.2397 39.0335 68.423C38.9675 68.599 38.9125 68.7493 38.8685 68.874L37.9445 71.239ZM44.0456 75.903V68.214H44.8156L44.9146 69.039H44.9916C45.1896 68.7163 45.4426 68.478 45.7506 68.324C46.0586 68.1627 46.4069 68.082 46.7956 68.082C47.2796 68.082 47.6902 68.1883 48.0276 68.401C48.3649 68.6137 48.6252 68.9473 48.8086 69.402C48.9919 69.8493 49.0836 70.4323 49.0836 71.151C49.0836 71.8257 48.9882 72.3867 48.7976 72.834C48.6142 73.274 48.3539 73.6003 48.0166 73.813C47.6792 74.0257 47.2869 74.132 46.8396 74.132C46.5902 74.132 46.3556 74.1027 46.1356 74.044C45.9156 73.9853 45.7176 73.8937 45.5416 73.769C45.3656 73.637 45.2116 73.472 45.0796 73.274H45.0136V75.903H44.0456ZM46.5316 73.285C46.8909 73.285 47.1842 73.2153 47.4116 73.076C47.6389 72.9293 47.8076 72.7057 47.9176 72.405C48.0276 72.097 48.0826 71.7047 48.0826 71.228V70.997C48.0826 70.491 48.0239 70.0877 47.9066 69.787C47.7892 69.479 47.6169 69.259 47.3896 69.127C47.1696 68.995 46.8946 68.929 46.5646 68.929C46.2052 68.929 45.9082 69.0097 45.6736 69.171C45.4462 69.325 45.2776 69.5597 45.1676 69.875C45.0649 70.1903 45.0136 70.5753 45.0136 71.03V71.195C45.0136 71.5983 45.0502 71.9357 45.1236 72.207C45.2042 72.471 45.3142 72.6837 45.4536 72.845C45.6002 73.0063 45.7652 73.12 45.9486 73.186C46.1319 73.252 46.3262 73.285 46.5316 73.285ZM50.3528 75.903V68.214H51.1228L51.2218 69.039H51.2988C51.4968 68.7163 51.7498 68.478 52.0578 68.324C52.3658 68.1627 52.7141 68.082 53.1028 68.082C53.5868 68.082 53.9975 68.1883 54.3348 68.401C54.6721 68.6137 54.9325 68.9473 55.1158 69.402C55.2991 69.8493 55.3908 70.4323 55.3908 71.151C55.3908 71.8257 55.2955 72.3867 55.1048 72.834C54.9215 73.274 54.6611 73.6003 54.3238 73.813C53.9865 74.0257 53.5941 74.132 53.1468 74.132C52.8975 74.132 52.6628 74.1027 52.4428 74.044C52.2228 73.9853 52.0248 73.8937 51.8488 73.769C51.6728 73.637 51.5188 73.472 51.3868 73.274H51.3208V75.903H50.3528ZM52.8388 73.285C53.1981 73.285 53.4915 73.2153 53.7188 73.076C53.9461 72.9293 54.1148 72.7057 54.2248 72.405C54.3348 72.097 54.3898 71.7047 54.3898 71.228V70.997C54.3898 70.491 54.3311 70.0877 54.2138 69.787C54.0965 69.479 53.9241 69.259 53.6968 69.127C53.4768 68.995 53.2018 68.929 52.8718 68.929C52.5125 68.929 52.2155 69.0097 51.9808 69.171C51.7535 69.325 51.5848 69.5597 51.4748 69.875C51.3721 70.1903 51.3208 70.5753 51.3208 71.03V71.195C51.3208 71.5983 51.3575 71.9357 51.4308 72.207C51.5115 72.471 51.6215 72.6837 51.7608 72.845C51.9075 73.0063 52.0725 73.12 52.2558 73.186C52.4391 73.252 52.6335 73.285 52.8388 73.285Z" fill="black"/>
<defs>
<linearGradient id="paint0_linear_8079_49175" x1="0" y1="0" x2="0" y2="60" gradientUnits="userSpaceOnUse">
<stop stop-color="#61FD7D"/>
<stop offset="1" stop-color="#26D043"/>
</linearGradient>
</defs>
</svg>
