<svg width="60" height="76" viewBox="0 0 60 76" fill="none" xmlns="http://www.w3.org/2000/svg">
<path d="M56.9531 46.0077C56.9531 52.0277 52.0277 56.9531 46.0077 56.9531H13.9923C7.97227 56.9531 3.04688 52.0277 3.04688 46.0077V13.9923C3.04688 7.97238 7.97227 3.04688 13.9923 3.04688H46.0077C52.0277 3.04688 56.9531 7.97238 56.9531 13.9923V46.0077Z" fill="black"/>
<path d="M34.0352 27.3117L47.002 11.1504H43.2461L32.1578 24.9715L21.0684 11.1504H8.6875L25.9668 32.6871L12.9988 48.8496H16.7547L27.8441 35.0273L38.9348 48.8496H51.3156L34.0352 27.3117ZM14.793 14.08H19.6621L45.209 45.9198H40.3398L14.793 14.08Z" fill="white"/>
<path d="M26.3827 74L29.3307 70.04L26.6577 66.454H27.9447L30.0017 69.259H30.0567L32.0917 66.454H33.3127L30.6727 70.029L33.6207 74H32.3337L30.0017 70.821H29.9467L27.6257 74H26.3827Z" fill="#333333"/>
</svg>
